<svg width="405" height="400" viewBox="0 0 405 400" fill="none" xmlns="http://www.w3.org/2000/svg">
<g clip-path="url(#clip0_1_3197)">
<mask id="mask0_1_3197" style="mask-type:luminance" maskUnits="userSpaceOnUse" x="0" y="0" width="406" height="400">
<path d="M405.257 0.00634766H0.578125V399.994H405.257V0.00634766Z" fill="white"/>
</mask>
<g mask="url(#mask0_1_3197)">
<path d="M405.257 73.2248V164.862L183.238 270.098L149.167 206.368C117.639 130.054 173.576 87.9396 228.394 101.64C229.309 91.8974 238.463 71.2967 261.448 70.282C261.244 28.4718 283.213 13.4526 310.367 17.5118C325.928 19.8458 336.301 30.3999 341.997 46.5353C366.711 44.5057 388.476 48.4635 405.257 73.2248Z" fill="#6B52FB"/>
<path d="M293.383 204.541C271.008 204.948 252.396 212.355 240.599 231.637C183.238 189.624 85.9074 222.909 107.977 334.64C42.5817 332.813 11.7655 353.617 0.578125 399.994H405.257V112.498C352.066 88.0414 286.06 122.849 293.383 204.541Z" fill="#CCBDFF"/>
<path d="M405.257 146.292C378.814 145.276 346.98 162.123 346.269 202.512V220.372H405.257V146.292Z" fill="#B8A3FF"/>
<path d="M293.382 204.541C275.685 204.845 252.905 210.225 239.784 230.825C214.257 207.89 164.218 204.541 131.165 235.493C166.66 211.95 204.188 232.854 216.291 263.096C221.986 258.326 227.072 254.065 231.852 250.513L232.156 250.309L233.276 249.598C247.616 239.654 282.499 226.056 321.147 246.352C326.639 216.11 329.08 202.715 349.421 184.346C312.503 175.518 301.824 189.218 293.382 204.541Z" fill="url(#paint0_linear_1_3197)"/>
<path d="M117.232 364.678C113.163 354.994 110.063 344.932 107.977 334.64C54.8875 332.001 27.5293 347.122 14.8164 367.723C31.4958 350.776 77.0589 349.456 117.232 364.678Z" fill="url(#paint1_linear_1_3197)"/>
<path d="M153.438 261.371C133.708 261.371 125.673 274.766 125.165 288.465C139.505 274.563 153.438 261.371 153.438 261.371Z" fill="url(#paint2_linear_1_3197)"/>
<path d="M92.1112 377.16L93.942 376.349L92.1112 375.537L91.2976 373.709H91.196L90.484 375.537H90.3823L88.6533 376.349L90.3823 377.16H90.484L91.196 378.986H91.2976L92.1112 377.16Z" fill="white"/>
<path d="M310.367 110.57C311.892 103.77 315.757 104.379 317.08 105.09C318.402 102.756 324.3 101.741 323.486 108.642C324.606 107.728 327.454 107.322 326.843 114.121H310.367V110.57Z" fill="#53A0A3"/>
<path d="M298.264 113.208H294.603V106.815C294.832 106.556 295.113 106.349 295.43 106.206C295.745 106.064 296.087 105.991 296.434 105.991C296.78 105.991 297.122 106.064 297.438 106.206C297.754 106.349 298.035 106.556 298.264 106.815V113.208Z" fill="#484294"/>
<path d="M321.046 96.4639H318.401V113.715H321.046V96.4639Z" fill="#484294"/>
<path d="M296.434 108.337C303.455 108.337 309.147 102.658 309.147 95.6518C309.147 88.6461 303.455 82.9668 296.434 82.9668C289.413 82.9668 283.722 88.6461 283.722 95.6518C283.722 102.658 289.413 108.337 296.434 108.337Z" fill="#59A1FF"/>
<path d="M309.146 95.043C309.01 91.9694 307.759 89.0501 305.626 86.8285C303.493 84.607 300.624 83.2345 297.552 82.9668C290.941 87.8378 290.229 97.986 291.348 107.221C293.092 108.048 295.014 108.431 296.942 108.337C298.62 108.272 300.27 107.875 301.794 107.17C303.319 106.466 304.688 105.466 305.823 104.23C306.958 102.994 307.836 101.545 308.406 99.9684C308.977 98.3915 309.229 96.7174 309.146 95.043Z" fill="#4294FF"/>
<path d="M314.536 89.9694C314.495 89.7732 314.409 89.589 314.286 89.4307C314.162 89.2725 314.005 89.1443 313.824 89.0562C313.631 88.8732 313.379 88.7653 313.112 88.7517C312.684 88.6023 312.241 88.5002 311.791 88.4473H309.349L307.111 88.6502C307.388 89.068 307.627 89.5094 307.823 89.9694H311.587L312.604 90.2738H312.909C312.909 90.1724 312.909 90.1724 313.011 90.2738H312.909L312.706 90.4769C312.484 90.7651 312.208 91.0065 311.892 91.1872C311.294 91.6056 310.644 91.9466 309.959 92.202L308.841 92.8109L305.79 94.0287C302.84 95.0435 299.891 95.9568 296.941 96.6672C293.962 97.499 290.94 98.1765 287.89 98.6968L284.229 99.1027H279.754C279.754 99.0013 279.754 99.0013 279.856 99.1027C279.856 99.0013 279.957 98.8998 280.059 98.7982L280.771 98.1893C281.376 97.725 282.023 97.3173 282.704 96.9717L283.72 96.4642V96.2613C283.62 95.8271 283.62 95.3761 283.72 94.9421L281.992 95.6524L279.856 96.8701L278.838 97.682C278.681 97.9056 278.545 98.1434 278.432 98.3924C278.309 98.548 278.228 98.731 278.192 98.9254C278.156 99.1199 278.169 99.3201 278.228 99.5086C278.269 99.7048 278.355 99.8891 278.479 100.047C278.602 100.206 278.76 100.334 278.941 100.422C279.133 100.605 279.386 100.713 279.652 100.726C280.066 100.922 280.517 101.026 280.974 101.031H284.839L288.195 100.625C291.317 100.222 294.41 99.6116 297.45 98.7982C300.514 98.0048 303.534 97.0564 306.502 95.9568L309.146 94.739L310.874 93.9272L312.909 92.6079C313.291 92.3951 313.634 92.1207 313.927 91.7961L314.434 91.0858C314.579 90.7319 314.615 90.3434 314.536 89.9694Z" fill="#A3CAFF"/>
<path d="M319.723 99.813C321.578 99.813 323.08 98.3137 323.08 96.464C323.08 94.6145 321.578 93.1152 319.723 93.1152C317.87 93.1152 316.368 94.6145 316.368 96.464C316.368 98.3137 317.87 99.813 319.723 99.813Z" fill="#BB53C9"/>
<path d="M313.013 84.2861H310.367V113.786H313.013V84.2861Z" fill="#484294"/>
<path d="M311.688 85.9098C315.509 85.9098 318.605 82.8202 318.605 79.0092C318.605 75.198 315.509 72.1084 311.688 72.1084C307.869 72.1084 304.773 75.198 304.773 79.0092C304.773 82.8202 307.869 85.9098 311.688 85.9098Z" fill="#D9B95B"/>
<path d="M245.582 24.4126L247.209 23.7022L245.582 22.9919L244.87 21.3682H244.768L244.056 22.9919L242.429 23.7022L244.056 24.4126L244.768 26.0363H244.87L245.582 24.4126Z" fill="#FFFAE6"/>
<path d="M289.62 112.599C302.842 111.28 310.774 112.599 310.774 112.599C318.911 111.99 325.115 112.903 328.267 114.223C331.42 115.543 332.538 115.847 332.945 117.166C333.353 118.485 332.538 133.505 331.929 139.999C331.318 146.494 322.674 151.873 307.621 157.86C302.943 159.788 298.671 161.107 294.603 155.018C290.535 148.93 289.824 146.697 289.62 146.189C289.416 145.682 282.907 143.247 281.687 135.738C280.466 128.228 279.958 120.312 279.754 117.674C279.551 115.035 278.941 113.208 289.62 112.599Z" fill="#6E4A9B"/>
<path d="M253.413 141.622C253.922 140.506 257.176 131.779 257.277 128.735C257.379 125.69 257.583 116.252 257.277 114.527C256.973 112.802 255.04 112.295 250.158 112.092C245.277 111.888 229.105 112.092 229.105 112.092C229.105 112.092 214.562 111.076 200.527 111.584C193.001 111.888 187.509 112.295 184.967 112.497C182.424 112.7 181.305 113.817 181.813 123.051C182.322 132.287 183.949 143.754 184.255 147.914C184.56 152.075 184.864 155.829 192.595 159.686C194.73 175.212 194.425 173.589 209.273 180.287C213.036 181.404 221.783 183.331 225.953 183.331C230.123 183.331 231.852 181.606 235.106 179.881C238.36 178.156 239.887 170.85 240.395 169.631C240.904 168.414 243.141 167.703 246.091 165.267C249.039 162.832 250.362 161.716 250.769 157.961C251.175 154.207 252.599 143.55 253.413 141.622Z" fill="#6E4A9B"/>
<path d="M195.747 124.067L195.544 128.329L194.12 131.475C193.849 132.162 193.392 132.759 192.798 133.201C192.392 133.606 192.392 133.707 192.493 132.591C192.595 131.475 192.798 129.75 192.798 129.445C192.798 129.141 192.696 129.04 191.984 128.025C191.272 127.01 195.747 124.067 195.747 124.067Z" fill="#5D4282"/>
<path d="M188.729 128.938V130.256L189.441 131.88L189.747 130.256L189.95 128.329L188.729 128.938Z" fill="#AA7AC2"/>
<path d="M184.967 112.498C181.305 112.802 181.305 113.816 181.814 123.052C182.323 132.287 183.95 143.754 184.255 147.914C184.313 149.608 184.62 151.284 185.17 152.887C185.313 152.64 185.383 152.36 185.374 152.075C185.276 149.298 185.378 146.517 185.679 143.754C185.99 141.194 186.161 138.619 186.188 136.041C186.188 132.794 186.188 133.2 185.272 129.851C184.356 126.502 184.458 126.198 184.561 124.37C184.662 122.544 184.662 116.659 184.967 112.498Z" fill="#AA7AC2"/>
<path d="M200.121 121.632C200.121 123.763 200.222 129.649 200.425 131.577C200.63 133.505 201.036 138.883 201.036 139.796C201.036 140.711 201.341 140.608 202.46 142.029C203.579 143.45 203.273 143.247 203.375 144.465C203.476 145.682 203.985 151.162 203.985 152.583C203.985 154.004 204.494 153.903 204.494 151.265C204.494 148.626 204.9 141.015 204.9 139.695C204.9 138.376 204.901 138.275 203.782 135.23C202.663 132.186 202.766 132.896 203.884 130.765C205.002 128.634 204.9 119.805 204.9 119.805L200.121 121.632Z" fill="#AA7AC2"/>
<path d="M232.157 116.049C232.157 116.049 231.954 126.299 232.056 129.648C234.904 135.229 234.801 134.925 234.7 140.709C234.598 146.494 234.801 146.19 231.954 148.422C231.954 153.395 232.565 165.573 227.784 168.922L219.444 174.807C224.021 174.908 227.072 174.706 229.309 173.387C231.582 172.303 233.621 170.786 235.31 168.922C237.243 166.587 242.735 165.978 243.039 160.802C243.345 155.627 244.972 146.595 244.972 142.434C244.972 138.274 247.21 135.128 247.718 130.256C248.091 124.681 248.058 119.084 247.616 113.512C247.82 111.483 245.786 113.107 245.786 113.107L229.106 112.092L232.157 116.049Z" fill="#5D4282"/>
<path d="M237.445 102.959C238.259 96.6674 243.751 97.0733 245.785 100.625C247.412 98.5955 249.751 99.3059 250.26 105.09C250.769 110.875 250.769 112.498 250.769 112.498H237.445V102.959Z" fill="#2F5C66"/>
<path d="M244.361 104.582L247.921 103.263V110.367H244.361V104.582Z" fill="#7AA9E6"/>
<path d="M234.192 61.3516H227.479C226.564 84.3877 222.699 100.828 214.461 111.483H247.21C238.971 100.828 235.107 84.3877 234.192 61.3516Z" fill="#BBD0FF"/>
<path opacity="0.7" d="M230.834 61.3516L225.953 110.468H232.462V61.3516H230.834Z" fill="#7381FF"/>
<path d="M223.106 94.5354C222.699 86.9244 221.885 80.0237 215.783 80.0237C209.579 69.2667 200.121 74.3407 199.51 91.9984L200.527 111.483H230.835C230.123 100.015 229.004 94.9414 223.106 94.5354Z" fill="#44948F"/>
<path d="M189.035 89.563H206.528V110.874H187.814V90.7808C187.814 90.4579 187.943 90.1481 188.172 89.9197C188.4 89.6914 188.711 89.563 189.035 89.563Z" fill="#F0CA8C"/>
<path d="M203.783 92.3032H202.663V108.256H203.783V92.3032Z" fill="#FFDFAB"/>
<path d="M203.884 106.815H190.561V108.185H203.884V106.815Z" fill="#FFDFAB"/>
<path d="M203.884 92.3032H190.561V102.654C190.561 102.654 194.73 101.335 195.646 97.4787C199.714 98.8995 203.884 93.6225 203.884 93.6225V92.3032Z" fill="#E5A16A"/>
<path d="M192.189 92.3032H190.561V108.236L192.189 106.815V92.3032Z" fill="#E5A16A"/>
<path d="M219.444 110.975H206.528V89.6646H218.224C218.384 89.6646 218.543 89.696 218.691 89.7572C218.839 89.8183 218.974 89.9081 219.087 90.0212C219.2 90.1342 219.29 90.2686 219.352 90.4163C219.413 90.564 219.444 90.7223 219.444 90.8822V110.975Z" fill="#E5A16A"/>
<path d="M249.243 110.062C244.463 109.859 228.8 110.062 228.8 110.062C219.593 109.459 210.36 109.323 201.137 109.657C196.167 109.808 191.208 110.248 186.289 110.975C182.119 111.483 182.322 112.295 182.119 113.716C188.424 114.324 197.273 114.324 200.527 114.324H208.053C205.642 115.968 203.396 117.837 201.341 119.906C198.697 122.748 200.324 121.733 206.019 121.022C210.468 120.408 214.953 120.069 219.444 120.008C222.412 120.007 225.374 119.735 228.293 119.196C229.056 119.121 229.789 118.859 230.427 118.434C231.067 118.01 231.59 117.435 231.953 116.76C232.106 116.498 232.185 116.2 232.185 115.898C232.185 115.595 232.106 115.297 231.953 115.035C231.953 115.035 237.547 114.324 240.7 114.223C243.853 114.122 251.176 114.731 252.396 114.731C253.617 114.731 252.396 113.006 252.396 113.006L256.057 112.701C255.854 111.078 254.023 110.266 249.243 110.062Z" fill="#4F999C"/>
<path opacity="0.7" d="M235.716 79.1107C235.004 73.7321 234.496 67.7448 234.191 61.3516H227.479C227.376 65.0048 227.072 68.5567 226.767 71.9056L235.716 79.1107Z" fill="#7381FF"/>
<path d="M250.769 47.5502C250.787 52.157 249.204 56.6276 246.287 60.1986C243.369 63.7696 239.3 66.2194 234.774 67.1298C230.248 68.0402 225.546 67.3547 221.47 65.1904C217.394 63.026 214.197 59.5171 212.427 55.2627C222.804 46.2379 236.194 41.4222 249.955 41.7657C250.489 43.6481 250.762 45.5941 250.769 47.5502Z" fill="#BBD0FF"/>
<path d="M212.427 55.2628C222.814 46.2552 236.197 41.4419 249.955 41.7658C249.603 40.6167 249.161 39.497 248.634 38.417C235.01 38.4238 221.815 43.1598 211.308 51.8124C211.573 52.9946 211.948 54.1496 212.427 55.2628Z" fill="#413A61"/>
<path d="M248.531 38.4166C234.97 38.4282 221.84 43.1663 211.409 51.8121C211.091 50.4132 210.92 48.9845 210.9 47.5499C210.906 43.0962 212.409 38.7731 215.169 35.273C217.928 31.7729 221.786 29.2983 226.124 28.2457C230.461 27.193 235.026 27.6232 239.089 29.4674C243.152 31.3115 246.476 34.4628 248.531 38.4166Z" fill="#FC5199"/>
<path d="M218.122 35.1696C217.817 34.8652 216.596 35.9815 215.478 37.7067C214.36 39.4319 213.545 41.2585 213.851 41.6644C214.155 42.0704 215.376 40.8526 216.596 39.1274C217.817 37.4022 218.529 35.5756 218.122 35.1696Z" fill="#FCA7C9"/>
<path d="M248.531 38.4173C239.07 38.4291 229.753 40.7272 221.376 45.115C221.281 42.9323 221.486 40.747 221.986 38.6202C222.903 34.597 224.868 30.8863 227.682 27.8633L230.835 27.6602C234.491 27.651 238.08 28.6508 241.203 30.5491C244.326 32.4476 246.862 35.1705 248.531 38.4173Z" fill="#D64592"/>
<path opacity="0.5" d="M250.769 47.5502C250.767 51.1585 249.782 54.6988 247.919 57.7914C246.056 60.884 243.385 63.4126 240.191 65.1064C239.097 65.0713 238.008 64.9354 236.937 64.7004C229.106 62.8737 223.512 56.4804 221.783 48.6664C230.411 43.9566 240.123 41.5779 249.955 41.7657C250.489 43.648 250.763 45.594 250.769 47.5502Z" fill="#7C73FF"/>
<path d="M239.863 46.444C242.251 45.3225 242.985 41.8644 241.503 38.7203C240.019 35.5761 236.881 33.9365 234.492 35.0581C232.104 36.1796 231.369 39.6377 232.852 42.7819C234.335 45.926 237.474 47.5656 239.863 46.444Z" fill="#413A61"/>
<path d="M238.563 43.6894C239.783 43.1167 240.151 41.3369 239.386 39.7141C238.62 38.0913 237.012 37.24 235.792 37.8127C234.572 38.3854 234.203 40.1653 234.968 41.7882C235.735 43.4109 237.343 44.2621 238.563 43.6894Z" fill="#7C73FF"/>
<path d="M212.731 126.706C212.762 127.128 212.887 127.54 213.099 127.909C213.31 128.278 213.601 128.595 213.951 128.836C217.308 131.373 220.664 134.012 222.698 135.839C224.733 137.665 227.478 140.608 227.58 139.796C227.681 138.985 228.699 135.027 229.207 131.576C229.716 128.126 229.207 128.836 225.953 127.314C222.698 125.792 215.783 123.661 213.748 122.95C211.715 122.241 212.63 123.458 212.731 126.706Z" fill="#5D4282"/>
<path d="M328.267 114.223C325.115 112.903 318.911 111.99 310.774 112.599C310.774 112.599 302.842 111.281 289.62 112.599C281.89 113.006 280.162 114.122 279.856 115.644C279.754 116.151 281.28 115.746 283.823 115.644C286.365 115.543 304.774 118.587 311.283 119.907C317.792 121.225 317.487 120.717 315.351 118.891C313.215 117.064 313.215 117.369 317.385 117.267C321.555 117.166 327.454 117.775 329.284 117.775C331.115 117.775 333.25 118.384 332.946 117.166C332.641 115.948 331.217 114.324 328.267 114.223Z" fill="#4F999C"/>
<path d="M210.291 46.9415L211.715 46.2312L210.291 45.5208L209.579 43.9985L208.867 45.5208L207.341 46.2312L208.867 46.9415L209.579 48.3622L210.291 46.9415Z" fill="#FCBDD6"/>
<path d="M295.416 76.1678L297.043 75.356L295.416 74.6456L294.602 73.022L293.89 74.6456H293.789L292.162 75.356L293.789 76.1678H293.89L294.602 77.7915L295.416 76.1678Z" fill="#FCBDD6"/>
<path d="M187.814 90.4763V103.466C190.662 103.263 192.493 99.7111 192.899 97.0726C194.628 97.0726 195.137 95.7533 195.544 93.8252C196.45 93.895 197.35 93.6356 198.079 93.0946C198.808 92.5538 199.316 91.7679 199.51 90.8823C199.815 92.303 200.222 92.8104 200.934 92.7089C201.646 92.6075 201.646 89.563 201.646 89.563H188.73C188.487 89.563 188.254 89.6592 188.082 89.8305C187.91 90.0018 187.814 90.2342 187.814 90.4763Z" fill="#4F999C"/>
<path d="M217.207 92.3032H216.088V108.256H217.207V92.3032Z" fill="#D9925B"/>
<path d="M210.596 92.3032H209.477V108.256H210.596V92.3032Z" fill="#D9925B"/>
<path d="M217.206 93.3185V92.2021H209.477V93.3185H217.206Z" fill="#D9925B"/>
<path d="M217.206 108.134V107.018H209.477V108.134H217.206Z" fill="#D9925B"/>
<path d="M213.851 111.889C213.851 104.278 219.037 103.974 219.037 103.974C219.444 100.828 221.274 98.2907 222.597 100.523C223.919 102.756 223.919 106.917 223.919 106.917C226.055 106.917 225.953 110.265 225.953 111.889H213.851Z" fill="#85B386"/>
<path d="M204.9 104.785H194.933V111.808H204.9V104.785Z" fill="#FFF1D9"/>
<path d="M205.002 111.89H210.291V104.867H205.002V111.89Z" fill="#BBD0FF"/>
<path d="M194.933 104.785H210.291L206.934 102.045H197.883L194.933 104.785Z" fill="#C77BA7"/>
<path opacity="0.7" d="M196.866 108.54C196.96 108.54 197.052 108.558 197.139 108.594C197.225 108.63 197.303 108.682 197.369 108.748C197.436 108.814 197.488 108.893 197.524 108.979C197.56 109.064 197.578 109.157 197.578 109.25V111.889H196.154V109.25C196.154 109.062 196.229 108.881 196.362 108.748C196.496 108.615 196.677 108.54 196.866 108.54Z" fill="#7381FF"/>
<path d="M199.206 108.236C199.543 108.236 199.815 107.963 199.815 107.627C199.815 107.291 199.543 107.018 199.206 107.018C198.869 107.018 198.595 107.291 198.595 107.627C198.595 107.963 198.869 108.236 199.206 108.236Z" fill="white"/>
<path d="M201.646 108.236C201.984 108.236 202.257 107.963 202.257 107.627C202.257 107.291 201.984 107.018 201.646 107.018C201.309 107.018 201.036 107.291 201.036 107.627C201.036 107.963 201.309 108.236 201.646 108.236Z" fill="white"/>
<path d="M206.427 103.771H204.29L203.781 102.959V101.437H204.901V103.06L206.427 103.771Z" fill="#B86796"/>
<path d="M218.427 108.134C218.787 108.134 219.145 108.205 219.477 108.343C219.811 108.48 220.113 108.682 220.369 108.936C220.624 109.191 220.826 109.493 220.964 109.826C221.101 110.158 221.173 110.515 221.173 110.874V116.861H215.681V110.874C215.681 110.147 215.97 109.451 216.485 108.936C217 108.423 217.699 108.134 218.427 108.134Z" fill="#BBD0FF"/>
<path opacity="0.7" d="M217.105 113.513C217.198 113.513 217.291 113.532 217.377 113.566C217.464 113.602 217.543 113.654 217.609 113.721C217.675 113.787 217.727 113.865 217.763 113.951C217.799 114.037 217.818 114.129 217.818 114.223V116.862H216.393V114.223C216.393 114.035 216.468 113.854 216.601 113.721C216.735 113.588 216.916 113.513 217.105 113.513Z" fill="#7381FF"/>
<path d="M219.444 112.295C219.894 112.295 220.258 111.931 220.258 111.483C220.258 111.034 219.894 110.671 219.444 110.671C218.995 110.671 218.631 111.034 218.631 111.483C218.631 111.931 218.995 112.295 219.444 112.295Z" fill="#D6E3FF"/>
<path d="M212.324 114.731C212.048 114.73 211.775 114.786 211.522 114.894C211.268 115.003 211.04 115.161 210.849 115.36C210.659 115.56 210.511 115.796 210.415 116.054C210.319 116.312 210.277 116.587 210.291 116.861H214.46C214.46 116.296 214.235 115.755 213.835 115.355C213.434 114.955 212.891 114.731 212.324 114.731Z" fill="#398A85"/>
<path d="M195.747 124.067C193.399 124.851 191.248 126.131 189.442 127.822C187.204 130.358 190.764 128.532 191.984 128.025L193.205 127.822C193.567 127.76 193.907 127.606 194.192 127.375C194.476 127.144 194.697 126.843 194.832 126.502L195.747 124.067Z" fill="#398A85"/>
<path d="M190.255 127.822C190.255 126.806 189.848 124.168 190.662 123.356C191.477 122.544 190.866 121.225 191.272 121.022C191.68 120.82 192.29 121.428 192.392 123.965C192.494 126.502 192.494 126.603 192.494 126.603L190.255 127.822Z" fill="#59B0A2"/>
<path d="M239.581 106.003H235.106V110.966H239.581V106.003Z" fill="#52A9FF"/>
<path d="M239.479 110.975H242.938V108.489H239.479V110.975Z" fill="#52A9FF"/>
<path d="M235.411 109.049C234.496 108.135 233.479 108.439 233.276 109.555C233.085 109.54 232.892 109.567 232.713 109.632C232.534 109.699 232.371 109.803 232.235 109.938C232.099 110.072 231.995 110.235 231.928 110.415C231.863 110.594 231.836 110.785 231.852 110.977H236.327C236.327 110.165 236.53 109.049 235.411 109.049Z" fill="#528C75"/>
<path d="M294.705 126.198C295.01 120.21 302.943 121.631 306.197 122.545C309.452 123.458 311.893 127.822 311.689 133.707C311.657 137.138 311.177 140.548 310.265 143.855C310.062 145.073 307.723 148.016 303.146 140.506C298.57 132.997 294.603 128.43 294.705 126.198Z" fill="#5D4282"/>
<path d="M307.52 107.728C307.417 105.09 307.316 99.7115 305.282 99.8129C303.248 99.9145 302.536 108.642 302.637 113.919L311.588 114.122C312.198 108.337 309.452 107.627 307.52 107.728Z" fill="#85B386"/>
<path d="M304.265 104.38C300.909 102.756 299.18 106.917 299.892 114.02H304.265V104.38Z" fill="#85B386"/>
<path d="M286.467 113.614C286.467 111.28 287.687 110.773 288.603 110.773C288.603 108.946 289.823 108.134 290.636 108.946C291.45 109.758 291.654 113.411 291.654 113.411L286.467 113.614Z" fill="#85B386"/>
<path d="M345.862 82.6631C345.863 82.5194 345.826 82.3779 345.754 82.253C345.682 82.1282 345.579 82.0246 345.454 81.9527C341.996 80.2275 336.504 80.4306 333.759 82.1557C332.741 82.7646 332.844 84.6927 333.047 86.012C333.25 87.3312 333.962 90.4771 335.691 91.289C337.419 92.1008 337.318 92.2022 337.419 94.232C337.522 96.2616 338.742 96.8705 341.488 94.8408C344.234 92.8111 344.336 91.289 344.336 89.9697C344.336 88.6505 345.759 87.1283 345.862 82.6631Z" fill="#5D51C9"/>
<path d="M165.847 169.327C165.948 173.082 166.863 173.995 167.778 174.604C168.693 175.213 169.507 174.299 170.423 172.675C171.053 171.168 171.331 169.538 171.237 167.906C171.237 167.196 170.626 167.297 169.101 167.196C168.078 167.091 167.048 167.303 166.151 167.805C165.847 168.109 165.847 168.313 165.847 169.327Z" fill="#5D51C9"/>
<path d="M384.001 63.9902H319.928C326.945 56.7851 353.896 57.191 361.219 61.3517C371.084 59.4236 375.864 59.6265 384.001 63.9902Z" fill="#8A66FF"/>
<path d="M216.088 157.657C234.7 140.709 258.702 149.843 266.228 155.019C277.11 149.538 284.331 151.974 290.942 157.657H216.088Z" fill="#8462F5"/>
<path d="M336.606 196.727C332.64 194.494 328.266 197.742 328.266 205.252C328.266 205.252 323.283 205.759 323.182 217.327H339.454L336.606 196.727Z" fill="#85B386"/>
<path d="M334.37 207.281H316.368V217.267H334.37V207.281Z" fill="#5E6AF2"/>
<path d="M320.843 212.254H318.401V217.094H320.843V212.254Z" fill="#754478"/>
<path d="M334.37 207.281H316.368L321.555 204.339H329.894L334.37 207.281Z" fill="#443E59"/>
<path d="M376.067 151.873L345.963 153.902C344.933 154.009 343.944 154.36 343.078 154.924C342.211 155.489 341.492 156.252 340.98 157.15L325.826 184.448C325.264 185.387 324.977 186.464 324.995 187.558C325.013 188.651 325.336 189.718 325.927 190.638L340.675 215.197C341.281 216.167 342.142 216.954 343.164 217.472C344.184 217.991 345.329 218.221 346.471 218.14L376.474 216.11C377.504 216.004 378.493 215.653 379.359 215.089C380.227 214.523 380.945 213.76 381.457 212.863L396.611 185.564C397.173 184.625 397.46 183.548 397.443 182.455C397.424 181.361 397.101 180.295 396.51 179.374L381.763 154.815C381.172 153.854 380.329 153.072 379.326 152.553C378.323 152.034 377.195 151.799 376.067 151.873Z" fill="url(#paint3_linear_1_3197)"/>
<path d="M343.726 217.734C344.599 218.067 345.537 218.207 346.471 218.139L355.421 217.531L376.372 216.11C377.553 216.027 378.683 215.605 379.627 214.893L376.27 198.147L343.726 217.734Z" fill="#276F96"/>
<path d="M342.811 155.12C342.075 155.672 341.453 156.361 340.98 157.149L325.826 184.448C325.261 185.435 324.98 186.559 325.012 187.695L339.149 188.71L342.811 155.12Z" fill="#ADEDFF"/>
<path d="M325.013 187.696C325.08 188.766 325.393 189.809 325.928 190.74L329.284 196.219L340.675 215.095C341.121 215.875 341.749 216.537 342.506 217.023L339.149 188.71L325.013 187.696Z" fill="#69CBE6"/>
<path d="M397.323 181.708C397.239 180.845 396.96 180.014 396.51 179.272L381.763 154.917C381.19 153.922 380.344 153.111 379.323 152.583L373.017 165.471L397.323 181.708Z" fill="#53BEDB"/>
<path d="M379.323 152.583C378.291 152.042 377.129 151.796 375.966 151.873L346.065 153.903C344.939 154.011 343.857 154.395 342.913 155.019L373.016 165.472L379.323 152.583Z" fill="#69CBE6"/>
<path d="M339.148 188.71L376.27 198.147L373.016 165.47L339.148 188.71Z" fill="#2D92BA"/>
<path d="M376.271 198.147L397.426 183.128C397.439 182.652 397.405 182.176 397.323 181.708L373.017 165.47L376.271 198.147Z" fill="#309AC4"/>
<path d="M366.812 213.471C366.812 206.672 372.61 204.44 375.05 205.048C375.152 193.682 376.78 189.826 380.848 189.623C384.916 189.421 385.323 196.828 385.323 196.828C389.9 196.727 391.527 200.583 391.832 206.977C396.307 207.078 400.883 210.224 401.29 215.095L368.236 216.414L366.812 213.471Z" fill="#528C75"/>
<path d="M377.898 206.57C378.721 209.109 379.267 211.729 379.526 214.385H378.509C378.306 211.239 377.594 206.876 377.594 206.876L377.898 206.57Z" fill="#7D456E"/>
<path d="M379.221 207.485L382.78 206.774C381.966 205.861 380.745 205.861 379.017 206.165C379.577 205.29 380.225 204.475 380.949 203.729C380.559 203.624 380.15 203.605 379.752 203.676C379.354 203.745 378.976 203.903 378.646 204.136C378.315 204.368 378.041 204.67 377.841 205.022C377.641 205.373 377.522 205.763 377.491 206.165C377.092 205.932 376.65 205.781 376.192 205.722C375.734 205.662 375.267 205.694 374.822 205.817C374.376 205.94 373.96 206.151 373.597 206.438C373.235 206.724 372.934 207.08 372.711 207.485C373.813 207.242 374.94 207.139 376.067 207.18C375.637 207.529 375.279 207.959 375.017 208.448C374.755 208.936 374.595 209.47 374.542 210.021L377.898 208.093L380.644 209.92C380.724 209.413 380.626 208.893 380.366 208.45C380.107 208.006 379.702 207.665 379.221 207.485Z" fill="#85B386"/>
<path d="M390.103 214.486C390.509 211.848 392.544 210.833 393.56 211.848C394.198 212.582 394.558 213.516 394.577 214.486H390.103Z" fill="#505C80"/>
<path d="M392.747 214.486C393.256 213.37 395.494 213.066 396.002 214.69C396.511 216.312 392.747 214.486 392.747 214.486Z" fill="#6473A1"/>
<path d="M380.441 214.182C380.237 212.05 378.711 211.137 377.694 212.355C376.678 213.572 376.678 214.486 376.678 214.486L380.441 214.182Z" fill="#505C80"/>
<path d="M335.792 210.224C339.454 209.006 343.726 210.529 345.149 217.632L330.504 218.952V217.835C330.488 216.177 330.988 214.554 331.936 213.191C332.882 211.828 334.23 210.791 335.792 210.224Z" fill="#6EAC8D"/>
<path d="M305.688 262.588C305.688 254.166 308.434 249.904 313.519 249.904C318.604 249.904 317.384 263.603 317.384 263.603L305.688 262.588Z" fill="#58A67E"/>
<path d="M393.459 214.587V294.149L301.01 293.235C303.553 279.636 309.959 258.732 309.959 258.732C309.959 258.732 310.876 233.362 312.401 225.852C312.401 223.822 312.095 220.169 311.892 218.038C311.918 217.463 312.166 216.921 312.582 216.524C313 216.127 313.554 215.906 314.13 215.907L322.062 215.298C327.961 215.095 355.218 213.471 368.847 213.878L393.459 214.587Z" fill="#824B6F"/>
<path d="M361.625 219.763L359.184 228.491L355.828 233.869L352.777 236.914L353.997 230.317L354.099 225.141L358.574 220.879L361.625 219.763Z" fill="#754465"/>
<path d="M405.257 214.588C405.257 214.588 382.374 214.284 368.847 213.877H364.982C364.982 213.979 359.592 234.58 358.778 239.247L340.573 261.675L339.353 282.783L386.441 294.149H405.257V214.588Z" fill="#5A3C5C"/>
<path d="M380.238 214.182C384.306 217.633 384.001 220.372 384.102 227.577V242.8C384.001 246.859 384.102 262.588 384.102 262.588H392.239C392.239 262.588 392.036 246.251 392.239 241.784C392.442 237.319 392.543 230.521 392.646 226.36C392.748 222.199 392.543 217.937 391.119 214.589C390.612 213.675 389.188 213.674 387.967 213.979C386.62 213.771 385.247 213.771 383.899 213.979C382.069 213.777 380.238 213.675 380.238 214.182Z" fill="#63A6FF"/>
<path d="M391.12 214.588C390.611 213.776 389.594 213.675 388.476 213.878C387.56 218.242 390.916 224.025 390.916 224.025C388.577 226.664 387.56 228.085 387.052 229.81C390.103 233.971 387.052 239.147 387.052 239.147C388.484 242.055 389.445 245.172 389.9 248.381C390.204 248.646 390.559 248.846 390.944 248.968C391.329 249.09 391.735 249.132 392.136 249.092C392.136 246.047 392.136 243.205 392.239 241.785C392.442 237.218 392.543 230.521 392.645 226.36C392.747 222.199 392.543 217.936 391.12 214.588Z" fill="#4F9BFF"/>
<path d="M389.391 247.772C385.12 242.799 386.137 237.116 386.441 233.158C386.499 232.02 386.704 230.895 387.052 229.81L386.441 229.1C387.192 226.399 387.19 223.546 386.438 220.846C385.686 218.146 384.21 215.701 382.17 213.775C381.051 213.775 380.238 213.878 380.238 214.182C384.306 217.632 384.001 220.372 384.102 227.577V242.799C384.001 246.554 384.102 260.152 384.102 262.284C384.569 262.166 384.991 261.921 385.323 261.573C389.595 258.326 390.612 253.353 389.9 248.381L389.391 247.772Z" fill="#63CBFF"/>
<path d="M387.052 229.81C386.704 230.895 386.499 232.02 386.442 233.158C386.136 237.117 385.119 242.799 389.391 247.772L389.899 248.381C389.445 245.172 388.484 242.055 387.052 239.146C387.052 239.146 390.102 233.97 387.052 229.81Z" fill="#63A6FF"/>
<path d="M375.152 283.088C375.864 269.793 380.034 259.747 386.441 258.631C386.644 245.337 392.747 241.582 397.73 241.278C402.713 240.973 405.257 246.148 405.257 253.557V295.062H375.152V283.088Z" fill="#33705E"/>
<path d="M330.911 219.662L332.03 235.798L328.166 250.309L325.419 267.357H335.081L339.557 248.178C339.557 248.178 342.099 238.74 343.014 236.61L340.267 219.662L340.573 214.486L335.691 214.69L335.488 217.226L330.911 219.662Z" fill="#966290"/>
<path d="M316.063 215.704V225.244L313.927 244.321V266.445H316.978V243.916L320.741 224.33L322.062 215.298L316.063 215.704Z" fill="#966290"/>
<path d="M371.185 270.098C371.625 274.929 371.557 279.793 370.982 284.609L369.253 284.103C370.067 278.52 370.371 270.402 370.371 270.402L371.185 270.098Z" fill="#7D456E"/>
<path d="M373.016 272.127H379.729C378.711 270.301 376.372 269.894 373.321 269.692C374.688 268.4 376.15 267.213 377.694 266.14C374.846 264.516 371.288 266.546 370.474 269.185C367.626 266.85 363.66 267.053 361.625 269.793C363.651 269.71 365.676 269.95 367.626 270.504C364.676 272.431 364.676 273.041 363.964 274.867L370.576 272.737L374.745 277.1C375.076 276.2 375.083 275.213 374.769 274.306C374.454 273.4 373.834 272.63 373.016 272.127Z" fill="#528C75"/>
<path d="M364.067 281.768C361.422 268.271 356.744 260.559 340.472 264.923C337.522 257.92 329.386 258.529 324.403 264.009C306.096 253.962 286.976 259.138 286.061 298.513L324.403 303.79L384.611 296.585C382.169 282.072 370.576 278.115 364.067 281.768Z" fill="#528C75"/>
<path d="M317.385 274.359C317.783 273.503 318.467 272.81 319.322 272.403C320.175 271.995 321.145 271.898 322.063 272.127C322.063 272.127 323.995 268.474 326.334 269.489C324.971 270.7 323.835 272.142 322.979 273.751L317.385 274.359Z" fill="#58A67E"/>
<path d="M308.334 270.504C309.453 278.825 308.334 289.277 308.334 289.277L306.096 288.669C307.113 281.362 307.316 270.909 307.316 270.909L308.334 270.504Z" fill="#856987"/>
<path d="M305.587 270.91L298.874 272.737C299.586 269.895 302.23 268.576 305.689 269.388C304.672 268.373 302.027 264.922 302.027 264.922C303.272 264.96 304.479 265.352 305.506 266.054C306.535 266.756 307.339 267.736 307.824 268.88C309.089 268.363 310.479 268.233 311.818 268.503C313.158 268.774 314.387 269.435 315.351 270.402H309.756C313.113 272.127 312.909 273.954 313.113 276.187L308.332 272.534L303.858 277.607C303.858 277.607 303.451 272.737 305.587 270.91Z" fill="#58A67E"/>
<path d="M308.637 282.783C303.654 282.072 299.688 285.016 297.857 290.394C293.28 290.089 291.348 293.438 291.145 298.208H317.384C317.689 292.018 316.571 288.364 314.333 287.756C314.435 285.117 312.4 283.291 308.637 282.783Z" fill="#58A67E"/>
<path d="M323.08 286.537C323.08 276.998 324.91 272.533 330.097 272.229C335.284 271.925 336.301 277.911 335.996 281.667C339.048 281.667 341.387 283.493 341.59 287.756C341.794 292.017 341.59 299.831 341.59 299.831L323.08 300.948V286.537Z" fill="#468069"/>
<path d="M339.861 253.353C343.726 272.634 342.506 297.396 342.506 297.396L337.217 296.381C338.54 279.027 337.624 252.846 337.624 252.846L339.861 253.353Z" fill="#754465"/>
<path d="M333.25 252.542L319.825 256.702C322.062 251.121 325.317 248.685 333.555 246.859C330.605 244.322 323.588 240.364 323.588 240.364C327.961 238.943 334.979 239.451 340.878 245.134C346.166 242.495 350.642 242.8 359.184 248.584C353.972 248.773 348.793 249.487 343.726 250.716C350.234 255.384 352.573 259.443 350.437 266.242L339.148 255.688L328.877 268.779C328.877 268.779 328.266 258.935 333.25 252.542Z" fill="#58AC77"/>
<path d="M370.677 223.619L366.406 229.606L364.575 238.03C364.575 238.03 370.983 230.723 374.034 229.404V218.951H371.695L370.677 223.619Z" fill="#754465"/>
<path d="M362.033 147.509L364.676 146.393L362.033 145.277L360.913 142.74C360.812 142.638 360.812 142.638 360.812 142.74L359.592 145.277L356.947 146.393L359.592 147.509L360.812 150.046H360.913L362.033 147.509Z" fill="#FFFAE6"/>
<path d="M386.747 183.534L388.17 182.925C388.271 182.925 388.271 182.925 388.17 182.824L386.747 182.216L386.136 180.795L385.425 182.216L384.001 182.824L385.425 183.433L386.136 184.853L386.747 183.433V183.534Z" fill="#B8A3FF"/>
<path d="M324.3 173.59L326.538 172.574L324.3 171.559L323.283 169.327H323.182L322.165 171.559L319.928 172.574L322.165 173.59L323.182 175.822H323.283L324.3 173.59Z" fill="#FFFAE6"/>
<path d="M383.39 287.045C383.899 276.186 391.119 273.244 395.696 275.374C400.273 277.506 400.273 287.147 400.273 290.292C402.001 290.597 403.324 292.626 403.63 296.99H383.39C383.39 296.99 383.187 293.337 383.39 287.045Z" fill="#2F6653"/>
<path d="M344.641 229.1L345.658 234.986L345.861 236.914L346.879 234.377V227.577L344.641 229.1Z" fill="#966290"/>
<path d="M349.218 227.273V230.317L350.744 228.796V226.36L349.218 227.273Z" fill="#966290"/>
<path d="M361.625 219.763L356.337 224.939C356.337 224.939 346.471 228.592 344.641 229.1C345.861 225.344 351.048 222.199 352.981 221.59C354.913 220.982 358.574 218.038 361.524 219.358C361.577 219.344 361.635 219.352 361.682 219.38C361.729 219.41 361.764 219.455 361.778 219.51C361.791 219.563 361.782 219.621 361.754 219.667C361.726 219.715 361.679 219.75 361.625 219.763Z" fill="#6EAC8D"/>
<path d="M354.099 222.909L356.947 221.792L352.573 222.503L354.099 222.909Z" fill="#528C75"/>
<path d="M349.218 224.533C349.218 221.793 349.014 219.357 350.337 218.951C350.438 216.008 351.557 215.704 352.473 216.415C353.388 217.124 353.185 220.271 353.185 220.271L354.1 222.909L349.218 224.533Z" fill="#528C75"/>
<path opacity="0.63" d="M324.606 210.833C325.111 210.833 325.521 210.424 325.521 209.919C325.521 209.415 325.111 209.006 324.606 209.006C324.1 209.006 323.689 209.415 323.689 209.919C323.689 210.424 324.1 210.833 324.606 210.833Z" fill="#9891FF"/>
<path opacity="0.63" d="M328.368 210.833C328.874 210.833 329.285 210.424 329.285 209.919C329.285 209.415 328.874 209.006 328.368 209.006C327.863 209.006 327.453 209.415 327.453 209.919C327.453 210.424 327.863 210.833 328.368 210.833Z" fill="#9891FF"/>
<path d="M405.257 297.091V399.993H131.268C130.86 396.441 130.353 392.889 129.945 389.439C129.844 387.917 129.641 386.395 129.436 384.872C129.233 383.35 129.335 383.35 129.233 382.64C129.132 381.93 128.929 379.697 128.724 378.175C128.318 374.42 127.911 370.665 127.606 367.215C127.589 366.501 127.521 365.788 127.403 365.084C127.403 364.373 127.301 363.663 127.301 363.054C127.301 362.446 127.097 360.923 126.996 360.01C126.894 359.096 126.894 357.777 126.793 356.661C126.691 355.545 126.589 354.326 126.589 353.21C126.198 347.995 126.403 342.752 127.199 337.582C128.084 332.255 130.649 327.35 134.522 323.578C134.549 323.578 134.575 323.568 134.594 323.548C134.613 323.53 134.624 323.503 134.624 323.476H134.725C142.048 316.474 154.761 311.502 176.221 305.413C209.477 297.7 270.398 295.975 302.943 296.483C308.842 296.686 314.74 298.614 320.538 298.208C341.387 296.483 359.999 297.396 380.238 298.106C388.273 298.106 396.51 297.193 405.257 297.091Z" fill="#78426A"/>
<path d="M280.975 337.481C280.253 341.742 279.845 346.05 279.754 350.369C279.77 356.153 278.412 361.856 275.788 367.012C273.042 372.797 257.481 385.076 257.176 385.99C256.871 386.903 256.057 397.253 255.753 399.994H246.09C246.408 396.757 246.51 393.502 246.395 390.251C246.192 386.903 255.854 369.448 256.26 365.49C256.546 360.827 256.58 356.153 256.362 351.485C256.26 348.543 253.82 337.481 256.769 323.375L285.755 321.549L280.975 337.481Z" fill="#703E64"/>
<path d="M336.302 320.127C333.759 329.362 332.641 335.451 332.641 337.481C332.641 339.51 327.657 343.671 325.928 346.208C324.199 348.745 323.386 348.847 323.182 352.5C322.979 356.153 317.893 377.971 317.893 377.971L300.197 384.568C300.197 384.568 303.452 371.071 304.061 366.707C304.672 362.343 306.503 356.559 306.503 354.428C306.503 352.297 306.605 350.775 309.147 348.441C311.689 346.107 316.572 340.119 318.809 338.293C321.047 336.466 321.148 335.249 322.063 331.392L326.131 316.17L336.302 320.127Z" fill="#8F516F"/>
<path d="M244.463 356.153C244.565 361.227 243.751 369.752 243.751 369.752C243.751 369.752 240.599 375.942 239.682 378.682C238.699 381.429 237.917 384.244 237.343 387.105C237.039 389.439 237.242 390.961 232.36 387.105C227.478 383.249 222.698 380.509 221.173 378.479C219.647 376.449 220.156 375.434 220.359 372.796C220.562 370.157 220.156 363.054 220.156 363.054L244.463 356.153Z" fill="#5A3C5C"/>
<path d="M367.727 314.038L405.256 310.183V399.993H357.557L357.353 390.251L341.793 375.536L349.624 319.418L350.133 315.764L367.727 314.038Z" fill="#543857"/>
<path d="M384.508 324.187L405.256 320.026V363.663L402.714 362.547C393.459 358.488 392.441 359.909 389.899 354.733C387.357 349.558 383.898 343.367 380.033 331.9C379.773 331.1 379.684 330.255 379.772 329.42C379.86 328.583 380.124 327.775 380.546 327.048C380.969 326.32 381.54 325.689 382.222 325.197C382.905 324.703 383.684 324.36 384.508 324.187Z" fill="#5A3C5C"/>
<path d="M218.426 355.444C218.426 356.357 211.307 360.416 211.206 361.33C210.697 367.012 210.901 371.376 210.697 373.609C210.494 375.841 204.9 380.915 203.883 382.945C202.866 384.975 200.933 388.222 200.527 399.588V399.994H131.572C129.538 382.843 127.504 364.882 126.996 353.21C126.588 346.107 126.792 340.323 128.114 335.35C129.194 330.791 131.559 326.637 134.928 323.375L216.19 315.46L212.833 334.842V335.757C214.054 341.034 218.02 350.369 218.426 355.444Z" fill="#AB576F"/>
<path d="M212.834 335.756V334.842L214.258 326.927L204.189 328.449C204.596 347.223 203.172 356.56 209.376 353.921C212.122 352.704 213.648 347.427 214.664 341.743C213.939 339.784 213.328 337.786 212.834 335.756Z" fill="#78426A"/>
<path d="M164.626 360.72L163.506 366.099V371.68C163.506 372.086 162.897 375.537 162.897 375.537C162.794 378.987 162.693 382.742 162.185 383.554C161.676 384.366 157.303 389.541 156.896 391.571C156.489 393.6 155.98 396.441 155.371 399.993H152.624C153.032 396.746 153.438 393.6 153.438 392.788C153.438 391.976 153.235 390.759 154.862 388.526C156.489 386.294 160.049 382.335 160.354 381.93C160.659 381.523 160.455 377.972 160.354 374.521C160.252 373.202 160.151 365.084 160.151 365.084L161.167 357.067C160.659 355.138 159.439 350.978 159.439 348.441C159.439 345.904 159.54 338.801 160.049 332.712H161.37C161.37 332.712 162.082 340.119 162.082 342.555C162.228 346.535 162.636 350.502 163.303 354.429C163.914 357.879 164.626 359.299 164.626 360.72Z" fill="#964D66"/>
<path d="M178.762 399.993H159.54C160.354 397.05 161.37 394.006 162.794 392.992C164.218 391.976 169.813 388.831 174.694 394.412C176.233 396.133 177.595 398.002 178.762 399.993Z" fill="#964D66"/>
<path d="M194.731 378.175C194.62 379.966 194.62 381.762 194.731 383.554C194.845 385.82 194.811 388.09 194.628 390.352C194.323 393.092 194.019 396.137 194.019 397.051C194.019 397.964 194.222 396.949 195.544 394.817C197.236 392.349 198.765 389.773 200.121 387.106C200.73 385.583 200.426 385.177 200.629 384.061C200.832 382.945 198.9 376.957 198.9 376.957L194.731 378.175Z" fill="#C46375"/>
<path d="M147.641 388.627C147.54 390.048 146.319 393.701 145.913 398.268C145.889 398.848 145.821 399.425 145.709 399.993H143.369V386.091C143.369 384.263 142.963 380.103 143.369 378.174C143.777 376.247 145.404 375.333 146.726 374.624C146.817 374.57 146.92 374.542 147.026 374.542C147.131 374.541 147.235 374.567 147.328 374.618C147.42 374.669 147.497 374.743 147.552 374.833C147.607 374.922 147.637 375.026 147.641 375.131C147.641 379.697 147.743 387.308 147.641 388.627Z" fill="#C46375"/>
<path d="M163.812 330.987C165.643 342.251 166.254 343.975 166.457 345.396C166.66 346.818 172.559 348.948 177.339 350.876C182.12 352.805 188.119 355.341 189.748 355.444C191.375 355.545 192.696 351.688 194.019 349.05C195.341 346.411 198.798 340.221 199.206 339.308C199.612 338.394 203.172 327.333 203.172 327.333L163.812 330.987Z" fill="#964D66"/>
<path d="M183.44 331.696C183.746 346.005 182.424 353.21 188.221 351.181C194.017 349.151 194.425 330.377 194.425 330.377L183.44 331.696Z" fill="#78426A"/>
<path d="M167.677 333.321C167.778 333.653 167.978 333.948 168.251 334.165C168.522 334.383 168.854 334.513 169.202 334.538C171.114 334.705 173.015 334.977 174.897 335.35C176.906 335.401 178.914 335.265 180.898 334.945C182.831 334.64 183.949 333.117 185.373 332.712C186.403 332.253 187.31 331.558 188.017 330.682H166.965L167.677 333.321Z" fill="#8A475E"/>
<path d="M137.268 354.428C137.219 356.208 136.979 357.976 136.556 359.705C135.844 362.141 133.607 365.794 133.098 368.027C132.53 369.942 132.188 371.918 132.081 373.913C132.081 376.044 134.319 382.945 134.725 387.41C135.132 391.875 135.743 396.644 136.047 399.993H131.268C130.86 396.441 130.351 392.89 129.945 389.439C129.844 387.918 129.64 386.395 129.436 384.873C129.233 383.35 129.335 383.35 129.233 382.64C129.132 381.93 128.928 379.697 128.724 378.175C128.318 374.42 127.911 370.666 127.606 367.215C127.588 366.501 127.521 365.789 127.403 365.083C127.403 364.374 127.3 363.663 127.3 363.054C127.3 362.446 127.097 360.923 126.996 360.01C126.894 359.097 126.894 357.777 126.793 356.661C126.691 355.545 126.589 354.327 126.589 353.211C126.385 349.963 125.369 345.498 125.369 342.353C125.356 341.752 125.496 341.158 125.776 340.627C126.064 340.194 126.271 339.713 126.385 339.206C126.793 338.496 126.996 337.989 127.199 337.582C127.544 336.89 127.718 336.123 127.708 335.35H128.115L137.268 336.466C137.166 342.859 137.268 353.109 137.268 354.428Z" fill="#D66D8A"/>
<path d="M179.475 297.498C178.966 293.438 172.864 292.423 171.949 299.019C166.559 296.584 165.439 303.891 167.88 307.544L186.391 303.079C190.763 296.077 183.441 295.874 179.475 297.498Z" fill="#5FA38B"/>
<path d="M405.257 294.047V316.17L367.83 316.982C361.694 317.173 355.594 317.988 349.625 319.418L346.268 320.432C337.216 323.679 331.521 320.939 318.808 319.519C318.808 319.519 285.45 322.563 273.449 324.592C261.662 326.602 249.671 327.148 237.751 326.216C225.546 325.303 220.766 326.013 214.155 327.333C207.544 328.652 190.967 330.784 183.441 331.697C179.695 332.14 175.916 332.241 172.152 332.001C169.088 331.9 166.028 332.312 163.1 333.218C159.337 334.437 153.845 336.162 148.862 337.481C140.115 339.815 138.488 336.365 127.199 337.481C127.402 335.147 127.3 333.422 127.911 331.9C129.132 328.551 130.148 325.709 134.522 323.476C134.535 323.476 134.548 323.474 134.561 323.469C134.573 323.463 134.584 323.457 134.594 323.447C134.603 323.437 134.611 323.426 134.615 323.414C134.621 323.401 134.624 323.388 134.624 323.375H134.725C143.166 313.024 161.168 308.559 161.676 308.457C171.949 305.819 181.305 303.587 189.645 301.658C197.985 299.73 204.188 299.122 206.528 299.122C207.178 299.084 207.831 299.152 208.46 299.324L220.156 298.106L228.089 297.498C232.157 297.091 236.327 296.889 240.497 296.584L244.87 296.279C254.633 295.671 264.6 295.163 274.567 294.859C326.843 292.626 380.034 293.539 405.257 294.047Z" fill="#85C28D"/>
<path d="M405.257 316.17V294.048L392.442 293.845C373.017 295.062 366.609 300.339 362.643 302.572C336.302 303.18 323.08 307.443 314.028 320.027L318.809 319.519C331.521 320.94 337.217 323.68 346.269 320.433L349.625 319.418C355.594 317.99 361.694 317.173 367.83 316.982L405.257 316.17Z" fill="#6EAC8D"/>
<path d="M161.778 273.142L164.117 272.127C164.219 272.127 164.219 272.026 164.117 272.026L161.778 271.01L160.761 268.677H160.66L159.54 271.01L157.201 272.026L159.54 273.041L160.66 275.477H160.761L161.778 273.041V273.142Z" fill="#FFFAE6"/>
<path d="M147.031 325.608C138.285 324.492 134.013 326.724 132.691 330.682L147.031 325.608Z" fill="#6EAC8D"/>
<path d="M244.462 356.154C231.852 363.46 211.206 370.97 201.747 376.044C192.289 381.118 191.984 379.698 202.866 364.272C213.748 348.847 225.648 354.429 225.648 354.429C225.648 354.429 240.293 341.338 244.462 356.154Z" fill="#6EAC8D"/>
<path d="M207.138 366.2L217.817 356.153C213.24 356.153 209.376 357.27 207.138 366.2Z" fill="#85C28D"/>
<path d="M225.648 354.429C224.932 354.107 224.181 353.869 223.41 353.718C222.371 354.953 221.629 356.409 221.241 357.975C220.853 359.541 220.83 361.174 221.173 362.75C214.969 365.795 212.528 366.809 211.715 368.636C211.261 369.636 210.952 370.695 210.8 371.781C221.173 367.114 235.004 361.532 244.463 356.154C240.293 341.338 225.648 354.429 225.648 354.429Z" fill="#528C75"/>
<path d="M147.134 342.555C146.877 344.874 146.076 347.099 144.795 349.05C143.879 350.775 142.963 349.557 143.168 346.716C143.371 343.875 142.862 341.337 144.083 341.439C145.303 341.54 147.337 341.032 147.134 342.555Z" fill="#B0728D"/>
<path d="M185.78 370.463L190.459 368.433C190.56 368.332 190.56 368.23 190.459 368.23L185.78 366.099H185.679L183.543 361.33H183.34L181.305 366.099H181.204L176.526 368.23C176.424 368.23 176.424 368.332 176.526 368.433L181.204 370.463H181.305L183.34 375.13H183.543L185.679 370.463C185.694 370.453 185.711 370.449 185.73 370.449C185.747 370.449 185.765 370.453 185.78 370.463Z" fill="#CCBDFF"/>
<path d="M173.373 386.191L176.017 385.075C176.119 384.974 176.119 384.974 176.017 384.974L173.373 383.756H173.271L172.152 381.017H172.05L170.83 383.756L168.084 384.974L170.83 386.09L172.05 388.728H172.152L173.271 386.09C173.271 386.103 173.274 386.116 173.278 386.129C173.284 386.141 173.291 386.152 173.301 386.162C173.31 386.171 173.322 386.178 173.334 386.184C173.346 386.189 173.359 386.191 173.373 386.191Z" fill="#FFF5CF"/>
<path d="M405.257 312.009V316.17L367.83 316.982C361.694 317.173 355.594 317.99 349.625 319.418L346.268 320.433C337.216 323.68 331.521 320.939 318.808 319.519C318.808 319.519 285.45 322.563 273.449 324.594C261.662 326.602 249.671 327.148 237.751 326.216C225.546 325.303 220.766 326.014 214.155 327.333C207.544 328.652 190.967 330.784 183.441 331.697C179.695 332.14 175.916 332.242 172.152 332.001C169.088 331.9 166.028 332.312 163.1 333.219C159.337 334.437 153.845 336.162 148.862 337.481C140.115 339.815 138.488 336.365 127.199 337.481C131.064 335.756 136.149 335.148 145.099 333.625C149.37 332.915 156.184 331.189 160.863 330.58C165.541 329.972 168.796 329.464 172.762 329.059C180.084 328.449 186.899 327.739 192.798 326.927L199.815 325.912C205.409 322.97 211.918 323.375 214.563 324.898H214.664C227.581 319.519 237.954 323.071 240.09 323.375C247.616 321.65 255.447 322.665 256.769 323.375C264.092 321.549 275.178 319.823 280.568 320.23C294.298 318.606 309.147 316.474 312.706 316.779C316.266 317.084 327.148 316.577 330.911 318.707C335.386 317.794 340.675 315.257 343.929 316.678C350.946 314.749 362.337 312.821 367.727 314.04H368.338C374.644 313.126 392.239 312.213 405.257 312.009Z" fill="#6EAC8D"/>
<path d="M166.864 316.881C180.186 313.734 183.441 312.009 183.237 311.705C183.034 311.401 179.983 311.3 171.846 312.821C163.711 314.344 166.864 316.881 166.864 316.881Z" fill="#6EAC8D"/>
<path d="M174.288 314.242C171.034 299.933 165.236 293.54 158.32 293.438C151.405 293.337 147.438 308.052 147.031 320.127C147.031 320.127 150.692 320.026 161.779 317.997C172.864 315.967 174.288 314.242 174.288 314.242Z" fill="#8483B8"/>
<path d="M162.388 302.064C160.964 298.614 156.896 295.366 153.032 296.787C152.282 297.749 151.665 298.806 151.2 299.932C156.286 298.31 156.286 304.296 156.591 309.676C160.252 308.559 165.236 309.168 166.863 316.88C168.686 316.469 170.485 315.96 172.253 315.358H172.66C171.846 309.269 167.575 302.165 162.388 302.064Z" fill="#8D8CC4"/>
<path d="M171.338 321.549C173.27 316.779 179.271 315.561 181.305 318.505L171.338 321.549Z" fill="#D3E890"/>
<path d="M151.202 307.443C149.574 308.153 149.473 310.589 150.082 312.517C150.693 314.445 152.423 313.126 152.321 311.3C152.219 309.473 152.423 306.835 151.202 307.443Z" fill="#9190C9"/>
<path d="M160.151 316.881C160.049 313.329 158.93 309.675 156.795 310.284C154.659 310.893 155.981 314.546 156.489 316.576C156.489 316.576 155.065 315.155 153.744 316.271C152.421 317.387 153.438 319.823 156.489 321.244L161.778 320.127C165.439 315.358 161.27 313.836 160.151 316.881Z" fill="#B9E08B"/>
<path d="M158.32 293.438C152.421 292.626 150.896 289.38 153.845 289.481C156.795 289.582 159.235 292.525 159.235 292.525L158.32 293.438Z" fill="#5E78EB"/>
<path d="M158.728 292.525C156.693 292.017 155.472 291.713 155.371 292.424C155.269 293.134 155.269 293.742 158.829 293.438L158.728 292.525Z" fill="#1A2D3B"/>
<path d="M158.727 293.539C158.428 293.357 158.181 293.104 158.002 292.803C157.825 292.502 157.725 292.163 157.71 291.814C158.015 286.639 160.456 284.305 161.371 287.146C161.877 288.494 162.252 289.887 162.49 291.307C167.575 290.698 165.744 294.25 162.49 294.351C161.183 294.46 159.873 294.177 158.727 293.539Z" fill="#3958DE"/>
<path d="M304.366 301.556C304.061 294.352 301.112 291.713 299.586 291.002C298.061 290.293 297.959 293.033 299.789 296.889C295.314 294.047 293.687 294.961 293.484 296.178C293.281 297.396 296.738 299.223 298.874 300.339C294.298 299.426 289.721 300.746 296.128 302.978C298.933 304.092 301.824 304.975 304.773 305.616L304.366 301.556Z" fill="#92D18F"/>
<path d="M298.061 306.631C298.874 298.715 303.857 297.397 303.857 297.397C303.959 293.845 305.79 290.699 308.129 290.496C310.468 290.293 314.13 291.612 317.384 294.758C320.638 297.903 323.588 297.802 323.588 303.181C316.366 305.007 301.823 308.763 298.061 306.631Z" fill="#8C7CA6"/>
<path d="M319.926 304.094C320.032 303.295 319.927 302.482 319.624 301.736C319.322 300.989 318.83 300.333 318.198 299.831C315.96 297.802 315.35 298.208 315.35 298.208C316.121 296.985 316.575 295.59 316.672 294.149C313.621 291.511 310.367 290.191 308.129 290.496C307.59 290.575 307.073 290.77 306.617 291.067C306.16 291.365 305.773 291.759 305.484 292.221C307.825 291.205 311.791 292.931 312.807 295.874C309.553 296.482 309.553 299.223 309.655 300.948C311.791 299.325 316.163 301.253 316.266 303.079C316.343 303.719 316.376 304.363 316.367 305.007L319.926 304.094Z" fill="#7A6D91"/>
<path d="M303.146 299.223C301.213 300.238 301.315 301.354 301.315 301.659C301.315 301.963 302.637 300.948 303.757 300.44C304.875 299.934 305.892 297.802 303.146 299.223Z" fill="#A293BA"/>
<path d="M375.864 300.034C377.389 297.701 382.475 297.294 385.425 299.426L375.864 300.034Z" fill="#549981"/>
<path d="M315.351 312.11C314.994 307.05 313.933 302.063 312.198 297.295C311.384 295.467 311.385 296.888 312.503 300.339C313.408 304.157 314.122 308.018 314.639 311.908L315.351 312.11Z" fill="#CFE08B"/>
<path d="M318.911 301.253C319.623 299.527 319.826 300.137 319.419 300.949C317.778 304.56 316.418 308.292 315.351 312.112H314.943C315.962 308.388 317.289 304.756 318.911 301.253Z" fill="#CFE08B"/>
<path d="M311.486 312.11C307.62 309.573 294.399 308.457 291.247 315.155L311.486 312.11Z" fill="#6EAC8D"/>
<path d="M240.361 315.671C241.423 315.56 242.264 315.288 242.24 315.065C242.216 314.843 241.337 314.752 240.276 314.863C239.214 314.975 238.373 315.246 238.397 315.469C238.42 315.692 239.3 315.783 240.361 315.671Z" fill="#CFE08B"/>
<path d="M346.574 311.197C347.387 310.385 348.811 311.197 349.726 312.314L342.403 312.618C342.912 311.299 344.742 310.589 346.574 311.197Z" fill="#85C28D"/>
<path d="M145.608 318.098C144.828 314.397 143.563 310.814 141.845 307.443C142.074 311.276 143.378 314.968 145.608 318.098Z" fill="#CFE08B"/>
<path d="M145.607 318.098C144.742 314.306 144.4 310.414 144.59 306.529C144.895 305.312 145.099 304.906 145.201 307.747C145.303 310.589 146.117 317.997 146.117 317.997L145.607 318.098Z" fill="#CFE08B"/>
<path d="M367.728 314.038C362.338 312.821 350.947 314.749 343.93 316.677C340.675 315.257 335.386 317.794 330.911 318.707C328.064 317.083 321.25 316.982 316.47 316.881L314.028 320.026H315.046L318.503 319.722H318.809C331.521 321.143 337.217 323.883 346.269 320.635L349.625 319.62C355.594 318.192 361.694 317.375 367.83 317.185L405.257 316.373V312.212C392.239 312.415 374.644 313.329 368.339 314.343L367.728 314.038Z" fill="#549981"/>
<path d="M364.27 295.265H347.184C345.557 293.438 345.353 287.147 349.726 287.553C349.726 283.291 355.829 282.072 356.439 286.233C361.728 284.204 363.761 286.64 363.456 289.38C370.881 286.64 369.863 293.033 364.27 295.265Z" fill="#85C28D"/>
<path d="M405.257 296.077C402.003 294.554 391.628 296.178 392.951 303.383C383.086 303.18 385.017 307.341 385.017 307.341H405.257V296.077Z" fill="#528C75"/>
<path d="M339.861 399.993H335.996C335.792 398.167 335.691 396.441 335.691 395.528C335.691 394.615 335.996 385.583 335.996 385.583L338.742 385.99C338.799 390.538 339.139 395.081 339.759 399.588L339.861 399.993Z" fill="#8F516F"/>
<path d="M280.975 381.93C280.975 384.67 281.483 388.222 281.585 389.54C281.687 390.86 282.602 390.15 283.721 388.222C284.516 386.874 285.164 385.445 285.653 383.959C285.758 382.574 285.758 381.184 285.653 379.798L280.975 381.93Z" fill="#5C3A5B"/>
<path d="M323.283 389.439L320.944 395.021L320.538 396.441L319.723 399.993H317.994L319.215 396.34L319.723 394.817C319.723 394.817 321.555 389.846 321.656 389.236C321.758 388.627 321.249 379.798 321.249 379.798L323.283 380.306C323.385 382.843 323.283 389.439 323.283 389.439Z" fill="#5C3A5B"/>
<path d="M305.383 381.017C305.383 381.017 304.671 390.149 304.163 391.265C303.654 392.381 302.739 396.848 301.926 399.181C301.894 399.459 301.826 399.732 301.721 399.993H286.873V399.79L287.788 393.701V381.93L305.383 381.017Z" fill="#5C3A5B"/>
<path d="M315.147 363.359C316.164 356.865 317.283 350.572 318.3 348.745C319.317 346.919 320.131 345.904 322.368 343.468C324.606 341.033 323.283 342.656 323.283 344.078C323.283 345.499 322.165 346.311 321.758 348.745C321.351 351.181 320.435 358.589 320.435 358.589L319.723 365.186L315.147 363.359Z" fill="#874D69"/>
<path d="M277.313 394.412C277.009 395.224 275.585 397.658 274.262 399.993H266.939C268.16 397.964 269.381 395.224 269.381 394.412C269.381 393.6 269.381 383.35 269.381 383.35L274.466 381.017C274.466 381.017 275.686 384.872 276.398 387.815C277.11 390.759 278.025 392.889 277.313 394.412Z" fill="#8F516F"/>
<path d="M405.257 373.812V347.528C373.831 348.035 352.981 351.892 336.505 356.154C317.588 356.762 307.011 359.198 301.418 362.953C281.89 365.084 279.653 367.215 270.194 381.017C267.55 384.872 269.787 383.756 282.196 382.438C294.603 381.118 314.13 381.017 323.283 381.321C330.809 388.019 335.895 388.12 346.269 385.786C354.71 383.959 369.966 381.219 369.966 381.219C384.814 380.002 405.257 379.19 405.257 379.19V373.812Z" fill="#357562"/>
<path d="M371.796 349.861C367.524 343.468 367.829 332.914 374.135 335.147C373.626 325.404 383.39 325.709 383.695 333.016C388.272 329.16 393.56 330.276 391.018 336.365C394.272 334.03 399.155 334.234 398.646 340.018C398.137 345.803 389.695 349.861 389.695 349.861H371.796Z" fill="#75745B"/>
<path d="M383.492 348.948L383.187 348.745C383.134 348.705 383.088 348.655 383.054 348.598C383.021 348.541 382.998 348.476 382.989 348.411C382.979 348.345 382.982 348.278 382.999 348.213C383.016 348.149 383.045 348.088 383.085 348.035C383.806 347.184 384.39 346.225 384.814 345.193C384.89 345.104 384.945 344.998 384.976 344.885C385.007 344.772 385.013 344.654 384.993 344.537C384.975 344.422 384.93 344.311 384.864 344.215C384.798 344.118 384.712 344.036 384.611 343.976C384.102 343.57 382.881 343.57 381.56 344.584C381.466 344.637 381.362 344.666 381.254 344.666C381.148 344.666 381.042 344.637 380.949 344.584C380.859 344.541 380.787 344.464 380.749 344.37C380.712 344.277 380.711 344.171 380.746 344.077C380.746 344.077 381.051 342.352 381.356 338.902C381.56 337.683 381.153 336.77 380.339 336.466C380.135 336.39 379.91 336.388 379.704 336.463C379.5 336.537 379.328 336.682 379.221 336.871L378.915 337.075C378.712 337.177 378.61 337.177 378.509 337.075C378.225 336.932 377.901 336.896 377.593 336.974C376.882 337.379 376.474 338.597 376.373 340.221C376.271 341.844 376.271 340.526 376.067 340.627C375.996 340.684 375.905 340.716 375.813 340.716C375.721 340.716 375.632 340.684 375.559 340.627C375.326 340.421 375.036 340.291 374.726 340.255C374.418 340.219 374.104 340.278 373.831 340.423C373.475 340.614 373.193 340.916 373.027 341.283C372.861 341.651 372.822 342.061 372.914 342.454C372.878 342.567 372.809 342.668 372.715 342.742C372.622 342.817 372.509 342.863 372.389 342.873C372.27 342.884 372.15 342.86 372.045 342.803C371.939 342.746 371.852 342.66 371.796 342.555C371.723 341.94 371.828 341.317 372.099 340.759C372.369 340.202 372.794 339.733 373.322 339.409C373.998 339.119 374.757 339.083 375.458 339.307C375.661 337.177 376.576 336.365 377.085 336.061C377.561 335.829 378.108 335.793 378.61 335.958C378.877 335.706 379.204 335.528 379.561 335.439C379.916 335.35 380.29 335.354 380.644 335.451C381.662 335.755 382.678 336.871 382.475 339.105C382.272 341.338 382.068 342.251 381.966 343.164C382.473 342.859 383.053 342.698 383.644 342.698C384.236 342.698 384.816 342.859 385.323 343.164C385.666 343.456 385.903 343.854 385.994 344.295C386.087 344.735 386.029 345.195 385.831 345.599C385.354 346.742 384.702 347.803 383.899 348.745L383.492 348.948Z" fill="#6B6A47"/>
<path d="M397.018 365.896C397.018 365.896 395.289 359.198 383.389 358.082C371.491 356.966 341.488 363.968 333.453 362.952C325.419 361.938 321.35 366.911 318.808 372.696C313.418 372.492 307.62 374.522 301.926 381.016V381.321C310.164 381.118 318.198 381.118 323.182 381.321C330.707 388.019 335.792 388.12 346.167 385.786C354.608 383.959 369.863 381.219 369.863 381.219C384.712 380.002 405.154 379.19 405.154 379.19V365.896H397.018Z" fill="#3B8264"/>
<path d="M388.984 370.97C386.441 361.837 391.933 349.963 405.257 350.471V370.97H388.984Z" fill="#2F6653"/>
<path d="M325.113 370.056C327.758 359.706 327.961 353.312 337.522 350.065C337.903 344.59 338.753 339.159 340.064 333.828C341.081 329.565 341.691 326.724 348.098 327.943C351.252 328.551 359.795 334.234 359.795 334.234C359.795 334.234 369.762 338.09 372.813 340.222C378.508 344.28 379.627 349.355 380.237 355.14C380.595 357.659 380.731 360.206 380.644 362.75C380.644 362.75 357.15 361.837 325.113 370.056Z" fill="#8483B8"/>
<path d="M343.319 340.423C345.964 341.134 347.692 347.324 347.692 350.268C353.083 350.369 357.354 358.487 357.354 363.562V364.068C365.079 363.115 372.861 362.674 380.644 362.75C380.703 361.565 380.669 360.377 380.542 359.198C378 356.357 371.085 356.762 368.44 358.487L366.405 351.892C365.084 347.629 359.489 346.817 352.879 346.817C352.879 346.817 351.659 342.96 350.133 339.003C348.607 335.045 342.913 333.32 340.065 333.827C339.657 335.755 339.149 337.887 338.742 340.221C340.266 339.976 341.824 340.044 343.319 340.423Z" fill="#7978A8"/>
<path d="M352.879 364.577C356.032 359.807 361.931 358.184 364.881 360.01C367.83 361.837 369.66 366.099 369.66 366.099C369.66 366.099 372.508 366.099 373.119 367.114L351.455 368.839C352.066 366.607 352.066 365.896 352.879 364.577Z" fill="#4F5C7D"/>
<path d="M338.233 362.446C333.352 362.243 330.097 367.824 333.149 371.781H341.996C344.539 368.737 343.014 362.75 338.233 362.446Z" fill="#2F6653"/>
<path d="M295.823 359.705L298.671 361.43L302.13 360.314L304.977 356.965L298.367 357.981L295.823 359.705Z" fill="#43435E"/>
<path d="M312.909 350.369C313.316 347.426 315.655 344.888 319.214 345.803C322.774 346.716 323.283 353.109 326.029 354.834C326.029 354.834 325.724 361.329 318.096 361.836L312.909 350.369Z" fill="#B85571"/>
<path d="M316.469 369.143C295.619 370.564 291.856 370.665 291.856 370.665C292.525 367.862 293.41 365.114 294.501 362.446C296.637 361.532 302.23 359.706 302.23 359.706L302.535 358.894C300.281 359.007 298.039 359.279 295.823 359.706C301.112 349.659 308.129 348.745 312.909 350.369C319.214 352.399 321.554 356.56 316.469 369.143Z" fill="#8B8AC2"/>
<path d="M289.416 370.969L309.553 369.651C309.961 368.535 310.368 367.113 310.876 365.692C311.995 362.648 312.91 359.502 310.265 358.791C307.621 358.082 305.689 360.619 304.773 363.46L291.349 364.576C291.043 365.49 289.721 369.752 289.416 370.969Z" fill="#8181B5"/>
<path d="M309.776 362.436C310.223 361.468 309.963 360.399 309.198 360.048C308.432 359.696 307.449 360.196 307.003 361.163C306.558 362.13 306.816 363.2 307.583 363.551C308.348 363.902 309.33 363.403 309.776 362.436Z" fill="#67668F"/>
<path d="M292.569 365.896L291.45 369.549L292.773 369.347L293.586 365.692L292.569 365.896Z" fill="#5C5B80"/>
<path d="M295.417 365.591L294.603 369.143L295.824 369.042L296.536 365.49L295.417 365.591Z" fill="#5C5B80"/>
<path d="M296.332 371.884C299.282 368.636 303.757 368.332 305.486 369.245C307.418 367.012 311.791 367.113 311.892 370.361C303.655 370.868 296.332 371.884 296.332 371.884Z" fill="#2F6653"/>
<path d="M298.57 365.388L297.959 368.839L299.384 368.737L299.994 365.186L298.57 365.388Z" fill="#5C5B80"/>
<path d="M304.977 356.965C302.196 357 299.428 357.375 296.738 358.082L295.823 359.705C298.039 359.278 300.282 359.007 302.536 358.894L302.23 359.705C302.23 359.705 296.637 361.533 294.501 362.446C294.32 362.835 294.183 363.243 294.094 363.663L303.553 360.923L304.977 356.965Z" fill="#A5A4DB"/>
<path d="M299.891 349.354L301.824 348.543C301.926 348.543 301.926 348.441 301.824 348.441L299.891 347.629L298.976 345.701L298.061 347.629L296.128 348.441C296.026 348.441 296.026 348.543 296.128 348.543L298.061 349.354L298.976 351.282L299.891 349.354Z" fill="#CCBDFF"/>
<path d="M311.587 350.774C313.926 351.282 315.045 352.805 315.146 354.022C315.248 355.239 313.519 355.443 311.994 354.123C310.468 352.805 308.943 350.166 311.587 350.774Z" fill="#8181B5"/>
<path d="M292.265 364.577L290.739 370.868L289.416 370.97L291.247 364.577H292.265Z" fill="#A5A4DB"/>
<path d="M327.555 399.994H311.893C313.622 397.457 315.656 396.238 317.791 396.238H320.538C323.386 396.949 326.131 398.065 327.555 399.994Z" fill="#5C3A5B"/>
<path d="M405.257 383.046V394.108C400.68 396.747 399.968 397.355 398.849 399.993H375.355C375.802 399.112 376.312 398.264 376.881 397.456C378.61 394.919 379.017 394.615 383.798 391.976C390.732 388.502 397.903 385.518 405.257 383.046Z" fill="#5C3A5B"/>
<path d="M272.635 360.111C272.293 360.451 272.023 360.855 271.838 361.298C271.653 361.743 271.559 362.219 271.559 362.699C271.559 363.181 271.653 363.657 271.838 364.1C272.023 364.545 272.293 364.948 272.635 365.287C275.478 368.407 277.843 371.929 279.653 375.74L281.789 373.101C281.208 369.034 280.15 365.049 278.636 361.227C278.381 360.689 278.003 360.22 277.531 359.857C277.06 359.493 276.507 359.247 275.922 359.138C275.336 359.029 274.732 359.06 274.161 359.23C273.589 359.399 273.066 359.701 272.635 360.111Z" fill="#4B8F69"/>
<path d="M271.211 369.042C278.331 370.564 281.788 373.101 281.788 373.101L279.652 375.74C276.797 374.66 273.757 374.142 270.703 374.217C270.319 374.223 269.938 374.143 269.587 373.986C269.237 373.829 268.924 373.598 268.673 373.307C268.421 373.017 268.236 372.676 268.13 372.307C268.024 371.939 267.999 371.552 268.059 371.173C268.105 370.817 268.227 370.475 268.416 370.168C268.605 369.863 268.856 369.601 269.154 369.399C269.453 369.198 269.79 369.062 270.144 369C270.499 368.939 270.862 368.953 271.211 369.042Z" fill="#4B8F69"/>
<path d="M283.213 366.606C282.296 370.157 281.789 373.101 281.789 373.101L278.534 373.506C278.197 370.869 278.3 368.194 278.839 365.591C278.897 365.295 279.016 365.016 279.19 364.769C279.364 364.524 279.588 364.317 279.847 364.164C280.106 364.011 280.395 363.914 280.694 363.88C280.994 363.845 281.298 363.876 281.585 363.967C282.145 364.112 282.628 364.467 282.932 364.96C283.236 365.451 283.336 366.041 283.213 366.606Z" fill="#4B8F69"/>
<path d="M280.059 374.014H279.856C276.803 372.917 273.626 372.202 270.398 371.883C270.092 371.883 269.889 371.578 269.99 371.376C269.99 371.241 270.044 371.112 270.139 371.017C270.235 370.922 270.364 370.869 270.499 370.869C273.496 371.217 276.457 371.829 279.347 372.695C278.941 371.376 277.72 368.433 274.465 362.648C274.417 362.524 274.411 362.387 274.446 362.259C274.483 362.131 274.562 362.018 274.669 361.938C274.719 361.879 274.787 361.835 274.861 361.812C274.936 361.791 275.015 361.789 275.09 361.811C275.165 361.833 275.232 361.875 275.284 361.933C275.336 361.992 275.369 362.064 275.381 362.141C280.365 370.97 280.568 373.405 280.669 373.506C280.678 373.613 280.654 373.718 280.598 373.81C280.544 373.9 280.461 373.972 280.365 374.014H280.059Z" fill="#3B826D"/>
<path d="M280.06 374.014C279.916 373.99 279.786 373.915 279.692 373.804C279.599 373.692 279.549 373.551 279.551 373.405C279.551 373.405 279.856 369.143 280.467 365.186C280.467 365.051 280.52 364.922 280.616 364.826C280.711 364.731 280.841 364.678 280.976 364.678C281.119 364.702 281.25 364.777 281.343 364.889C281.436 365 281.487 365.141 281.484 365.287C280.874 369.244 280.67 373.507 280.67 373.507C280.645 373.65 280.571 373.78 280.46 373.874C280.348 373.966 280.205 374.016 280.06 374.014Z" fill="#3B826D"/>
<path d="M390.204 340.729H390.001C389.93 340.707 389.866 340.67 389.811 340.621C389.756 340.571 389.713 340.512 389.685 340.444C389.655 340.376 389.641 340.303 389.643 340.23C389.646 340.156 389.663 340.085 389.696 340.018C390.204 339.003 390.103 338.699 390.001 338.699C389.9 338.699 388.985 338.496 388.374 338.496H388.171C388.025 338.498 387.884 338.448 387.772 338.355C387.66 338.262 387.585 338.132 387.561 337.989C387.561 337.685 387.459 337.075 387.052 336.974C386.645 336.873 385.526 337.582 385.12 339.206C385.058 339.339 384.955 339.45 384.828 339.521C384.7 339.594 384.553 339.626 384.408 339.613C384.283 339.548 384.184 339.441 384.127 339.312C384.072 339.182 384.063 339.038 384.102 338.902C384.611 336.873 386.035 335.857 387.153 335.959C387.525 336.024 387.864 336.206 388.122 336.481C388.378 336.756 388.539 337.107 388.577 337.481C389.594 337.38 390.51 337.481 390.916 338.09C391.324 338.699 391.222 339.308 390.612 340.425C390.001 341.541 390.407 340.729 390.204 340.729Z" fill="#6B6A47"/>
<path d="M186.086 338.293C181.619 338.241 177.164 337.834 172.763 337.075C172.287 339.49 170.905 341.632 168.898 343.063C168.706 343.197 168.561 343.389 168.484 343.61C168.407 343.832 168.401 344.072 168.469 344.297C168.536 344.521 168.673 344.719 168.86 344.863C169.047 345.005 169.273 345.085 169.508 345.092C175.611 345.599 179.374 345.701 183.95 344.28C184.392 344.141 184.783 343.873 185.074 343.513C185.363 343.151 185.539 342.711 185.577 342.251L186.086 338.293Z" fill="#BBD0FF"/>
<path d="M173.982 337.075C172.864 339.613 171.135 342.251 172.661 342.352C174.186 342.454 176.321 339.309 176.627 337.887C176.932 336.466 173.982 337.075 173.982 337.075Z" fill="#DEE8FF"/>
<path d="M198.29 352.805C202.764 350.979 205.817 349.558 207.748 346.514C208.146 345.948 208.359 345.276 208.359 344.585C208.46 342.859 208.46 341.134 208.562 339.613C206.02 341.439 201.849 342.555 195.035 341.946C194.892 344.875 194.38 347.772 193.51 350.572C192.595 354.124 193.408 354.835 198.29 352.805Z" fill="#BBD0FF"/>
<path d="M206.673 342.907C207.001 341.661 206.693 340.5 205.987 340.315C205.28 340.13 204.442 340.991 204.114 342.238C203.786 343.484 204.093 344.645 204.8 344.83C205.506 345.015 206.344 344.154 206.673 342.907Z" fill="#66A8FF"/>
<path d="M182.777 339.537C183.104 338.29 182.533 337.059 181.501 336.79C180.468 336.519 179.366 337.31 179.038 338.558C178.71 339.805 179.281 341.034 180.314 341.305C181.346 341.574 182.448 340.783 182.777 339.537Z" fill="#66A8FF"/>
<path d="M197.476 341.844C197.171 346.107 195.849 348.644 198.188 348.137C200.527 347.629 201.748 346.107 201.849 341.439L197.476 341.844Z" fill="#DEE8FF"/>
<path d="M221.376 308.255C203.069 310.792 203.069 324.897 203.477 329.261C205.917 328.856 208.053 328.551 209.579 328.145L214.155 327.333L214.766 321.244C227.072 316.779 235.818 312.009 238.768 309.98C241.717 307.95 243.039 305.211 221.376 308.255Z" fill="#5FA38B"/>
<path d="M224.834 301.455C217.41 308.255 188.831 324.39 188.831 324.39L187.306 339.004C182.021 338.946 176.751 338.471 171.542 337.582C171.643 337.177 171.643 336.77 171.745 336.264C172.762 325.303 173.678 317.489 176.423 313.024C179.169 308.559 192.289 302.47 192.289 302.47L224.834 301.455Z" fill="#2F3A52"/>
<path d="M223.105 301.455L192.289 302.47L188.933 303.992C193.611 306.123 198.289 308.153 198.696 318.707C207.544 313.43 219.749 305.92 224.63 301.658L223.105 301.455Z" fill="#242F47"/>
<path d="M225.139 310.487C224.834 315.156 220.461 318.91 210.392 323.274C210.392 323.274 210.189 329.768 209.782 339.613C206.934 341.743 202.053 342.961 194.12 342.353H194.018C194.102 342.09 194.136 341.815 194.12 341.541C194.12 341.033 194.018 340.526 194.018 340.018C193.814 334.233 193.51 326.419 193.611 322.462C193.814 315.662 193.204 313.125 207.443 308.052L224.834 301.455C225.203 304.451 225.305 307.473 225.139 310.487Z" fill="#2F3A52"/>
<path d="M225.139 310.487C225.305 307.473 225.203 304.451 224.834 301.455L207.341 308.052L204.696 309.067C213.951 308.153 215.884 312.619 214.766 321.245C221.783 317.693 224.834 314.344 225.139 310.487Z" fill="#242F47"/>
<path d="M263.075 317.287C270.94 313.142 279.02 309.415 287.28 306.124C287.55 306.069 287.787 305.911 287.94 305.683C288.093 305.454 288.148 305.175 288.094 304.905C288.04 304.637 287.881 304.4 287.653 304.248C287.423 304.096 287.143 304.04 286.873 304.093C276.297 304.297 263.075 305.717 263.075 305.717V317.287Z" fill="#5FA38B"/>
<path d="M277.313 276.694H253.821L250.77 306.732L265.516 308.864C267.493 309.252 269.502 309.456 271.517 309.473C272.476 309.439 273.414 309.172 274.247 308.694C275.081 308.216 275.784 307.543 276.297 306.732C279.857 300.948 280.06 295.57 280.06 290.496C279.91 285.777 278.982 281.114 277.313 276.694Z" fill="white"/>
<path d="M254.634 296.077L251.786 297.093L250.77 306.732L265.516 308.864C267.493 309.252 269.502 309.456 271.517 309.473C272.476 309.439 273.414 309.172 274.247 308.694C275.081 308.217 275.784 307.543 276.297 306.732C278.099 303.799 279.245 300.51 279.653 297.093C274.67 295.469 265.007 294.454 254.634 296.077Z" fill="#2F4E75"/>
<path d="M253.108 279.13C247.311 282.58 245.684 285.421 245.684 285.421L250.973 289.886L257.583 285.421L253.108 279.13Z" fill="white"/>
<path d="M266.736 229.1C258.803 228.796 257.786 238.943 260.024 250.411L270.194 249.801C275.279 237.523 274.669 229.302 266.736 229.1Z" fill="url(#paint4_linear_1_3197)"/>
<path d="M267.143 248.685H267.041C266.965 248.696 266.888 248.685 266.819 248.654C266.748 248.622 266.689 248.572 266.646 248.508C266.603 248.445 266.58 248.371 266.578 248.294C266.576 248.218 266.596 248.142 266.635 248.077C267.002 244.963 267.579 241.878 268.364 238.842C268.41 238.725 268.498 238.629 268.611 238.573C268.724 238.516 268.853 238.504 268.975 238.538C269.045 238.559 269.11 238.595 269.164 238.645C269.22 238.694 269.263 238.755 269.291 238.823C269.321 238.89 269.335 238.963 269.333 239.037C269.33 239.109 269.313 239.182 269.28 239.248C268.567 242.226 268.024 245.241 267.652 248.28C267.605 248.383 267.536 248.473 267.447 248.544C267.359 248.615 267.254 248.662 267.143 248.685Z" fill="#8C1C9C"/>
<path d="M273.448 236.406C273.245 234.782 272.634 233.768 271.719 233.565C270.804 233.362 267.651 234.782 266.635 236.609L266.228 236.813C266.126 236.914 265.923 236.813 265.82 236.71C265.58 236.358 265.235 236.09 264.833 235.944C264.431 235.799 263.994 235.782 263.584 235.899C262.057 236.71 261.041 240.466 262.668 248.584C262.769 248.787 262.566 249.092 262.261 249.193H262.16C262.049 249.17 261.944 249.122 261.856 249.051C261.767 248.981 261.698 248.891 261.651 248.787C260.125 241.278 260.634 236.305 263.075 234.986C263.576 234.754 264.135 234.679 264.679 234.769C265.223 234.861 265.727 235.113 266.126 235.493C267.448 233.565 269.991 231.941 272.025 232.55L272.736 232.956C273.16 234.059 273.401 235.225 273.448 236.406Z" fill="#8C1C9C"/>
<path d="M267.86 280.738C285.805 279.706 299.926 271.52 299.402 262.456C298.879 253.391 283.907 246.881 265.963 247.912C248.019 248.945 233.896 257.13 234.42 266.194C234.944 275.259 249.916 281.771 267.86 280.738Z" fill="url(#paint5_linear_1_3197)"/>
<path d="M274.611 272.803C276.842 272.534 278.508 271.142 278.333 269.696C278.157 268.249 276.207 267.295 273.976 267.564C271.745 267.834 270.08 269.224 270.255 270.671C270.431 272.117 272.381 273.072 274.611 272.803Z" fill="#9B28AB"/>
<path d="M249.062 272.509C249.296 271.298 247.697 269.973 245.491 269.55C243.284 269.126 241.306 269.764 241.072 270.974C240.839 272.185 242.439 273.51 244.644 273.934C246.851 274.358 248.829 273.72 249.062 272.509Z" fill="#A72CB8"/>
<path d="M250.972 274.258H250.769C249.441 274.109 248.156 273.702 246.988 273.057C245.818 272.413 244.788 271.545 243.954 270.503C240.7 266.749 240.09 261.877 242.327 259.442C242.794 258.978 243.35 258.613 243.962 258.369C244.574 258.124 245.228 258.007 245.887 258.022C247.208 258.104 248.498 258.463 249.672 259.075C250.845 259.687 251.878 260.538 252.701 261.573C256.159 265.328 256.871 270.503 254.328 272.939C253.425 273.8 252.22 274.272 250.972 274.258ZM245.887 259.036C245.376 259.014 244.866 259.103 244.392 259.296C243.918 259.488 243.491 259.78 243.141 260.152C241.208 262.183 241.92 266.545 244.768 269.793C246.231 271.691 248.389 272.932 250.769 273.243C251.815 273.294 252.839 272.929 253.617 272.229C255.753 270.098 254.938 265.632 251.989 262.284C251.246 261.356 250.322 260.591 249.273 260.033C248.225 259.474 247.071 259.135 245.887 259.036Z" fill="#F0C795"/>
<path d="M241.617 265.024C241.481 265.024 241.351 264.97 241.257 264.875C241.161 264.779 241.108 264.651 241.108 264.516C240.921 263.633 240.934 262.72 241.145 261.842C241.357 260.964 241.761 260.145 242.328 259.443C242.44 259.343 242.585 259.287 242.735 259.287C242.885 259.287 243.031 259.343 243.143 259.443C243.346 259.544 243.346 259.949 243.143 260.152C242.644 260.731 242.29 261.419 242.114 262.16C241.937 262.902 241.94 263.675 242.125 264.414C242.139 264.482 242.14 264.55 242.128 264.617C242.115 264.685 242.089 264.749 242.051 264.805C242.013 264.862 241.964 264.911 241.907 264.949C241.849 264.986 241.785 265.012 241.718 265.024H241.617Z" fill="white"/>
<path d="M265.923 273.752C264.709 273.774 263.524 273.38 262.566 272.635C259.719 270.301 259.922 265.125 262.973 260.863C264.598 258.4 267.111 256.655 269.991 255.992C271.447 255.746 272.942 256.073 274.161 256.905C274.771 257.336 275.28 257.896 275.649 258.544C276.018 259.193 276.239 259.916 276.296 260.66C276.45 262.162 276.303 263.679 275.867 265.125C275.43 266.57 274.713 267.915 273.754 269.083C272.949 270.273 271.913 271.29 270.707 272.074C269.503 272.858 268.152 273.394 266.737 273.649L265.923 273.752ZM263.787 261.472C261.143 265.227 260.837 269.895 263.278 271.823C263.744 272.195 264.286 272.461 264.866 272.602C265.446 272.742 266.05 272.754 266.635 272.635C269.202 272.128 271.467 270.633 272.94 268.475C274.771 266.039 275.687 263.198 275.279 260.863C275.225 260.248 275.043 259.651 274.745 259.11C274.448 258.567 274.041 258.093 273.551 257.717C272.566 257.055 271.363 256.8 270.194 257.006C267.57 257.634 265.28 259.229 263.787 261.472Z" fill="#F0C795"/>
<path d="M262.058 263.908H261.855C261.793 263.876 261.739 263.831 261.695 263.778C261.651 263.725 261.618 263.663 261.6 263.597C261.58 263.529 261.576 263.46 261.584 263.391C261.593 263.323 261.616 263.257 261.652 263.198C261.992 262.367 262.436 261.583 262.973 260.863C263.575 259.961 264.293 259.143 265.109 258.427C265.223 258.368 265.354 258.345 265.482 258.363C265.61 258.381 265.729 258.439 265.821 258.529C265.915 258.624 265.967 258.751 265.967 258.885C265.967 259.018 265.915 259.145 265.821 259.239C265.067 259.911 264.385 260.659 263.788 261.472C263.305 262.137 262.896 262.851 262.567 263.603C262.525 263.701 262.453 263.783 262.362 263.837C262.27 263.891 262.165 263.916 262.058 263.908Z" fill="white"/>
<path d="M265.008 267.156C266.226 265.902 267.845 265.113 269.584 264.922" stroke="#2B2F33" stroke-width="2.26583" stroke-miterlimit="10" stroke-linecap="round"/>
<path d="M251.379 269.084C251.112 269.069 250.86 268.962 250.667 268.779C250.244 268.306 249.727 267.928 249.149 267.665C248.571 267.403 247.945 267.264 247.31 267.256C247.04 267.212 246.793 267.077 246.608 266.875C246.423 266.672 246.313 266.413 246.293 266.14C246.319 265.862 246.448 265.603 246.655 265.416C246.863 265.228 247.132 265.124 247.412 265.125C249.169 265.202 250.836 265.925 252.091 267.155C252.206 267.243 252.3 267.354 252.369 267.481C252.437 267.609 252.478 267.749 252.487 267.893C252.496 268.037 252.475 268.181 252.424 268.317C252.373 268.452 252.295 268.575 252.193 268.677C251.984 268.912 251.692 269.057 251.379 269.084Z" fill="#2B2F33"/>
<path d="M258.499 274.868C257.904 274.836 257.333 274.624 256.862 274.262C256.389 273.9 256.038 273.403 255.854 272.838C255.821 272.773 255.803 272.7 255.801 272.627C255.8 272.553 255.813 272.48 255.842 272.413C255.872 272.345 255.915 272.285 255.969 272.236C256.024 272.187 256.089 272.15 256.16 272.128C256.465 271.925 256.769 272.128 256.973 272.432C257.075 272.765 257.275 273.059 257.546 273.277C257.819 273.494 258.151 273.624 258.499 273.65C259.108 273.65 259.617 273.142 259.922 272.229C259.989 272.077 260.107 271.954 260.256 271.879C260.404 271.805 260.575 271.786 260.737 271.824C260.806 271.845 260.871 271.881 260.926 271.931C260.981 271.98 261.025 272.041 261.053 272.108C261.082 272.176 261.096 272.249 261.094 272.323C261.092 272.395 261.074 272.468 261.041 272.533C260.932 273.146 260.625 273.707 260.165 274.129C259.706 274.551 259.12 274.811 258.499 274.868Z" fill="#782AA1"/>
<path d="M268.771 280.652L253.921 285.726L242.124 281.363C242.023 281.261 241.921 281.464 242.023 281.565L250.566 293.743L251.074 294.047L262.058 298.715L276.703 294.149C276.771 294.142 276.835 294.117 276.89 294.079C276.947 294.039 276.991 293.987 277.022 293.927C277.052 293.867 277.066 293.799 277.064 293.732C277.062 293.664 277.042 293.598 277.009 293.539L269.381 280.956C269.313 280.858 269.221 280.78 269.114 280.727C269.008 280.674 268.889 280.647 268.771 280.652Z" fill="#4F9BFF"/>
<path d="M253.617 283.696C254.736 280.043 260.126 277.912 264.499 278.115L266.432 281.464L253.922 285.727L253.617 283.696Z" fill="#E0C26E"/>
<path d="M262.058 298.715L253.921 285.726L268.77 280.652C268.889 280.647 269.007 280.674 269.114 280.727C269.22 280.78 269.312 280.858 269.38 280.956L277.008 293.539C277.042 293.598 277.061 293.664 277.064 293.732C277.066 293.799 277.052 293.867 277.021 293.927C276.991 293.987 276.945 294.039 276.89 294.079C276.834 294.117 276.77 294.142 276.703 294.149L262.058 298.715Z" fill="#4781FF"/>
<path d="M242.531 281.464L243.344 280.246C243.5 280.026 243.709 279.851 243.955 279.739C248.328 278.521 252.396 281.566 253.617 283.696C256.566 280.246 263.278 278.216 267.245 279.535C267.448 279.535 267.55 279.638 267.651 279.84L268.262 280.855L253.921 285.727L242.531 281.464Z" fill="#FFEB9E"/>
<path d="M246.294 298.005C246.802 307.341 246.904 312.111 246.701 314.953C246.498 317.794 245.989 320.331 249.04 320.026C252.091 319.722 253.414 318.606 255.142 316.069C256.871 313.532 257.481 301.557 257.38 296.787C257.278 292.017 254.837 289.481 250.972 289.887C247.107 290.292 246.09 293.033 246.294 298.005Z" fill="url(#paint6_linear_1_3197)"/>
<path d="M246.7 305.819C246.802 310.284 246.802 313.025 246.7 314.953C246.598 316.881 245.988 320.331 249.039 320.026C252.09 319.722 253.413 318.606 255.141 316.069C256.871 313.532 256.668 310.488 257.074 306.225C253.718 303.688 248.937 304.094 246.7 305.819Z" fill="#FFF7D4"/>
<path d="M249.04 320.026C252.193 319.722 253.414 318.606 255.142 316.069C255.319 315.784 255.456 315.478 255.55 315.156C255.352 315.11 255.146 315.113 254.951 315.167C254.756 315.22 254.577 315.321 254.43 315.46C252.091 317.591 247.413 317.693 246.599 315.46C246.498 318.098 246.192 320.23 249.04 320.026Z" fill="#1A2D3B"/>
<path d="M255.956 307.949C256.465 308.052 256.465 308.559 256.769 308.559C256.788 308.013 256.855 307.469 256.974 306.935C252.803 305.312 249.549 305.108 246.701 306.935V307.848C248.145 307.142 249.734 306.782 251.341 306.801C252.948 306.818 254.529 307.211 255.956 307.949Z" fill="#FC5199"/>
<path d="M271.516 309.473C272.558 309.411 273.568 309.088 274.452 308.533C275.335 307.978 276.065 307.21 276.572 306.299C277.08 305.388 277.348 304.365 277.353 303.323C277.358 302.281 277.099 301.254 276.601 300.339C273.346 294.047 269.278 288.669 263.99 289.38C258.701 290.089 257.074 294.758 254.735 314.141C254.56 315.582 253.875 316.914 252.802 317.895C252.312 318.395 251.87 318.939 251.481 319.519C250.565 320.94 257.786 319.418 262.769 317.286C263.012 317.161 263.227 316.99 263.402 316.781C263.577 316.571 263.707 316.329 263.787 316.069C265.515 309.37 265.515 308.864 265.515 308.864C267.492 309.252 269.501 309.456 271.516 309.473Z" fill="url(#paint7_linear_1_3197)"/>
<path d="M268.873 297.294C268.8 297.262 268.721 297.248 268.64 297.251C268.561 297.255 268.484 297.278 268.414 297.317C268.345 297.357 268.286 297.412 268.241 297.479C268.198 297.545 268.17 297.622 268.161 297.7C267.958 298.816 267.144 303.383 266.838 304.399C266.533 305.413 265.72 308.864 265.72 308.864L266.533 309.066C267.6 305.687 268.383 302.225 268.873 298.715C268.98 298.493 269.037 298.251 269.037 298.005C269.037 297.759 268.98 297.516 268.873 297.294Z" fill="#9B28AB"/>
<path d="M276.601 300.339C274.771 296.787 272.635 293.438 270.092 291.409C272.534 293.946 271.516 300.948 266.838 304.398L265.72 308.864C267.627 309.256 269.569 309.46 271.516 309.472C272.559 309.411 273.568 309.087 274.452 308.533C275.336 307.979 276.065 307.21 276.573 306.3C277.079 305.389 277.348 304.365 277.353 303.322C277.358 302.281 277.1 301.255 276.601 300.339Z" fill="#2F4E75"/>
<path d="M278.127 279.13L275.991 279.535L276.398 285.219L269.584 284.812C264.296 284.508 264.397 287.248 267.245 288.77C270.092 290.293 279.856 294.758 283.517 292.728C287.179 290.698 284.738 284.914 278.127 279.13Z" fill="#9E2FAD"/>
<path d="M249.141 286.537C248.633 285.827 248.022 285.421 246.395 285.624C244.768 285.827 242.124 286.74 241.311 288.161C240.497 289.582 241.106 294.047 247.31 290.292C249.955 288.669 249.752 287.451 249.141 286.537Z" fill="#9E2FAD"/>
<path d="M253.108 285.523L253.921 285.725L254.634 285.523L253.617 284.609L253.108 285.523Z" fill="#E0C26E"/>
<path d="M255.956 304.399C255.549 307.138 255.142 310.386 254.633 314.141C254.581 314.77 254.4 315.383 254.102 315.941C253.806 316.5 253.398 316.992 252.905 317.388C252.032 317.944 251.411 318.818 251.175 319.823C250.769 321.447 257.685 319.519 262.77 317.388C263.035 317.28 263.273 317.116 263.466 316.905C263.66 316.694 263.804 316.443 263.888 316.17L266.532 305.515C264.674 304.151 262.433 303.405 260.125 303.384C258.671 303.358 257.235 303.708 255.956 304.399Z" fill="#FFFAE6"/>
<path d="M255.753 305.819C257.482 305.22 259.328 305.027 261.145 305.256C262.963 305.484 264.702 306.129 266.228 307.139L265.923 308.153C263.38 306.936 259.211 305.616 255.55 306.936L255.753 305.819Z" fill="#FC5199"/>
<path d="M253.921 316.271H253.82C253.564 316.713 253.217 317.093 252.802 317.388C251.887 318.2 251.074 318.707 250.972 319.924C250.87 321.143 257.685 319.519 262.769 317.388C263.035 317.28 263.273 317.115 263.466 316.905C263.659 316.694 263.804 316.443 263.888 316.17C263.976 315.651 264.112 315.142 264.295 314.647C261.148 316.423 257.462 317 253.921 316.271Z" fill="#1A2D3B"/>
<path d="M268.059 303.282L266.838 304.398C266.635 305.414 265.72 308.864 265.72 308.864L266.533 309.067C267.174 307.176 267.684 305.243 268.059 303.282Z" fill="#2D415C"/>
<path d="M274.364 295.975H273.957C274.84 297.232 275.621 298.554 276.296 299.934L277.212 299.426C276.525 298.083 275.554 296.904 274.364 295.975Z" fill="#2D415C"/>
<path d="M278.127 279.13L275.991 279.535L274.262 284.711L276.398 285.219H278.33C279.569 284.3 280.859 283.453 282.195 282.682C281.027 281.299 279.655 280.102 278.127 279.13Z" fill="white"/>
<path d="M278.33 285.32H280.67C281.688 285.421 281.585 284.508 280.67 284.508L279.042 284.711L278.33 285.32Z" fill="#8C1C9C"/>
<path d="M188.831 324.39C188.933 322.97 189.239 320.331 189.239 319.316C189.239 318.302 190.459 317.693 190.459 318.809C190.459 319.925 190.256 321.854 190.053 323.782L188.831 324.39Z" fill="#202A40"/>
<path d="M211.614 316.474C211.207 315.257 210.393 316.474 210.393 317.794C210.393 319.112 210.495 320.736 210.393 323.273L211.715 322.664C212.061 320.612 212.026 318.515 211.614 316.474Z" fill="#202A40"/>
<path d="M210.394 310.284C210.211 310.281 210.032 310.232 209.872 310.144C209.713 310.056 209.577 309.93 209.477 309.777C207.546 306.935 205.613 304.094 203.579 301.354C203.433 301.115 203.373 300.833 203.41 300.556C203.447 300.279 203.579 300.024 203.783 299.831C204.026 299.675 204.322 299.619 204.607 299.676C204.892 299.732 205.143 299.898 205.308 300.136C207.343 302.775 209.376 305.616 211.309 308.559C211.465 308.803 211.522 309.097 211.464 309.382C211.408 309.666 211.242 309.917 211.003 310.081L210.394 310.284Z" fill="#BF9A5D"/>
<path d="M225.749 274.969C221.682 273.446 215.986 272.737 207.85 273.244C199.713 273.752 196.153 274.563 192.39 276.085C187.407 287.248 188.424 295.672 192.289 302.47C197.866 304.845 203.942 305.821 209.985 305.312C215.681 305.007 221.173 304.298 224.936 302.674C228.496 292.525 229.309 280.957 225.749 274.969Z" fill="#FFDB9E"/>
<path d="M199.002 287.756L192.798 287.147C192.492 287.045 192.289 286.842 192.289 286.64C192.319 285.166 192.524 283.701 192.899 282.276C193.001 282.072 193.306 281.87 193.51 281.971C193.713 282.072 194.018 282.276 193.916 282.58C193.6 283.739 193.429 284.932 193.407 286.132L198.493 286.64C198.574 285.33 198.813 284.035 199.205 282.783C199.205 282.58 199.509 282.377 199.815 282.479C199.882 282.491 199.946 282.516 200.004 282.554C200.062 282.591 200.111 282.64 200.149 282.696C200.187 282.754 200.213 282.817 200.225 282.884C200.238 282.952 200.237 283.021 200.221 283.087C199.825 284.442 199.586 285.838 199.509 287.248C199.509 287.451 199.509 287.553 199.306 287.654L199.002 287.756Z" fill="#F0B576"/>
<path d="M202.663 304.703C202.528 304.703 202.399 304.65 202.303 304.554C202.208 304.458 202.154 304.33 202.154 304.195C200.426 288.77 202.256 283.188 205.205 276.592C205.259 276.458 205.365 276.35 205.499 276.293C205.632 276.235 205.782 276.234 205.917 276.287C206.053 276.342 206.16 276.447 206.217 276.58C206.275 276.713 206.277 276.864 206.222 276.998C203.274 283.493 201.544 288.872 203.171 304.093C203.174 304.239 203.124 304.38 203.03 304.492C202.937 304.604 202.806 304.678 202.663 304.703Z" fill="#F0B576"/>
<path d="M182.729 249.295C182.932 254.369 195.645 255.181 195.645 255.181L196.866 250.613L182.729 249.295Z" fill="#0E2369"/>
<path d="M214.575 242.388L214.597 242.288C214.713 241.741 214.363 241.202 213.813 241.085L210.998 240.488C210.448 240.371 209.909 240.721 209.791 241.27L209.771 241.369C209.653 241.917 210.004 242.456 210.553 242.572L213.369 243.17C213.918 243.286 214.459 242.936 214.575 242.388Z" fill="#1839AD"/>
<path d="M192.493 267.155C195.582 267.155 198.086 264.657 198.086 261.574C198.086 258.492 195.582 255.993 192.493 255.993C189.404 255.993 186.899 258.492 186.899 261.574C186.899 264.657 189.404 267.155 192.493 267.155Z" fill="#63A6FF"/>
<path d="M207.952 277.709C217.894 277.709 225.953 269.667 225.953 259.747C225.953 249.826 217.894 241.784 207.952 241.784C198.01 241.784 189.95 249.826 189.95 259.747C189.95 269.667 198.01 277.709 207.952 277.709Z" fill="#365DEC"/>
<path d="M197.985 244.829C195.791 246.283 193.943 248.2 192.572 250.445C191.202 252.688 190.341 255.205 190.052 257.818C204.596 258.326 215.072 253.353 217.105 251.425C219.139 249.497 206.324 246.858 197.985 244.829Z" fill="#1839AD"/>
<path d="M201.951 266.85H201.748C201.083 266.787 200.45 266.533 199.927 266.119C199.403 265.704 199.011 265.148 198.798 264.516C198.73 264.3 198.743 264.066 198.837 263.861C198.931 263.654 199.098 263.49 199.307 263.4C199.523 263.351 199.75 263.375 199.951 263.466C200.153 263.557 200.32 263.713 200.425 263.907C200.515 264.238 200.696 264.538 200.948 264.77C201.199 265.004 201.512 265.162 201.849 265.227C202.282 265.183 202.696 265.029 203.052 264.78C203.408 264.532 203.695 264.197 203.884 263.806C203.937 263.713 204.009 263.63 204.094 263.565C204.178 263.499 204.276 263.451 204.379 263.423C204.484 263.394 204.592 263.387 204.699 263.4C204.805 263.414 204.909 263.448 205.002 263.501C205.096 263.554 205.178 263.626 205.243 263.711C205.31 263.795 205.358 263.893 205.387 263.997C205.415 264.1 205.423 264.209 205.409 264.315C205.396 264.422 205.361 264.525 205.308 264.617C204.999 265.255 204.525 265.799 203.935 266.191C203.345 266.585 202.66 266.812 201.951 266.85Z" fill="#1839AD"/>
<path d="M224.021 267.155C227.39 267.155 230.123 264.429 230.123 261.066C230.123 257.704 227.39 254.978 224.021 254.978C220.65 254.978 217.918 257.704 217.918 261.066C217.918 264.429 220.65 267.155 224.021 267.155Z" fill="#4293FF"/>
<path d="M229.28 261.397C229.473 259.275 228.497 257.452 227.098 257.326C225.699 257.199 224.409 258.815 224.216 260.936C224.022 263.058 224.999 264.879 226.398 265.007C227.796 265.134 229.086 263.517 229.28 261.397Z" fill="#66A8FF"/>
<path d="M208.053 241.48C205.096 241.438 202.175 242.143 199.562 243.526C196.948 244.91 194.727 246.928 193.103 249.396C199.918 250.004 220.665 252.541 224.631 253.049C221.986 246.554 215.579 241.48 208.053 241.48Z" fill="url(#paint8_linear_1_3197)"/>
<path d="M215.58 253.658H215.376C215.275 253.658 202.663 251.831 183.543 250.309C183.422 250.296 183.306 250.26 183.2 250.203C183.093 250.144 183 250.066 182.923 249.971C182.848 249.877 182.792 249.769 182.758 249.653C182.725 249.536 182.715 249.415 182.729 249.294C182.726 249.168 182.751 249.043 182.804 248.929C182.856 248.814 182.935 248.714 183.034 248.634C183.133 248.556 183.248 248.501 183.372 248.475C183.496 248.448 183.623 248.451 183.746 248.482C202.866 250.005 215.58 251.831 215.681 251.831C215.922 251.899 216.134 252.046 216.282 252.249C216.429 252.452 216.504 252.697 216.495 252.947C216.433 253.145 216.313 253.319 216.149 253.446C215.985 253.573 215.787 253.647 215.58 253.658Z" fill="#0E2369"/>
<path d="M197.679 260.66H197.374C197.034 260.464 196.648 260.361 196.255 260.361C195.863 260.361 195.477 260.464 195.137 260.66C195.037 260.711 194.928 260.74 194.817 260.747C194.705 260.754 194.593 260.738 194.489 260.7C194.384 260.662 194.288 260.602 194.207 260.526C194.126 260.449 194.062 260.357 194.018 260.254C193.964 260.161 193.928 260.058 193.914 259.951C193.9 259.845 193.908 259.736 193.936 259.633C193.964 259.528 194.013 259.432 194.079 259.347C194.146 259.261 194.229 259.19 194.323 259.138C194.904 258.836 195.549 258.677 196.204 258.677C196.86 258.677 197.505 258.836 198.086 259.138C198.189 259.182 198.281 259.246 198.359 259.326C198.436 259.408 198.494 259.503 198.532 259.608C198.571 259.712 198.587 259.824 198.58 259.935C198.574 260.047 198.543 260.154 198.492 260.254C198.398 260.38 198.275 260.483 198.134 260.553C197.992 260.623 197.837 260.66 197.679 260.66Z" fill="#13212B"/>
<path d="M209.477 260.66H209.07C208.75 260.462 208.379 260.358 208.002 260.358C207.625 260.358 207.255 260.462 206.934 260.66C206.841 260.714 206.738 260.749 206.631 260.763C206.524 260.777 206.415 260.77 206.311 260.741C206.207 260.713 206.109 260.664 206.025 260.598C205.939 260.532 205.868 260.45 205.816 260.356C205.74 260.265 205.684 260.161 205.654 260.048C205.623 259.934 205.617 259.815 205.636 259.7C205.655 259.584 205.7 259.474 205.766 259.377C205.832 259.279 205.918 259.198 206.019 259.138C206.603 258.789 207.27 258.604 207.952 258.604C208.632 258.604 209.3 258.789 209.883 259.138C210.064 259.277 210.192 259.473 210.247 259.694C210.303 259.915 210.282 260.148 210.189 260.356C210.105 260.461 209.996 260.545 209.871 260.598C209.747 260.651 209.612 260.673 209.477 260.66Z" fill="#13212B"/>
<path d="M204.722 247.156C205.704 246.317 205.995 245.051 205.373 244.327C204.752 243.604 203.453 243.697 202.471 244.536C201.491 245.376 201.2 246.642 201.82 247.366C202.442 248.09 203.741 247.995 204.722 247.156Z" fill="#CCBDFF"/>
<path d="M225.851 274.969C220.562 274.867 217.511 282.072 217.207 292.018C217.207 292.018 208.867 293.134 203.68 294.351C198.493 295.57 196.967 298.614 197.273 301.151C197.578 303.688 199.815 306.225 206.832 306.225H209.172L213.545 305.819C228.597 303.992 235.513 296.584 235.004 288.263C234.7 282.479 232.564 277.607 225.851 274.969Z" fill="#365DEC"/>
<path d="M202.663 299.426C202.49 299.427 202.32 299.391 202.162 299.32C202.004 299.251 201.863 299.149 201.748 299.02L197.883 294.149C197.786 294.04 197.714 293.911 197.671 293.772C197.628 293.633 197.617 293.486 197.636 293.341C197.655 293.197 197.706 293.059 197.783 292.935C197.861 292.812 197.964 292.707 198.086 292.626C198.307 292.447 198.586 292.358 198.87 292.377C199.152 292.396 199.419 292.521 199.612 292.728C200.934 294.352 202.257 295.976 203.477 297.701C203.574 297.81 203.646 297.938 203.688 298.077C203.732 298.217 203.744 298.364 203.724 298.509C203.704 298.653 203.654 298.791 203.577 298.915C203.499 299.038 203.396 299.143 203.273 299.223L202.663 299.426Z" fill="#BF9A5D"/>
<path d="M202.56 288.161C200.933 286.64 196.764 286.436 190.763 288.365C190.663 284.114 191.352 279.882 192.798 275.882C182.525 278.927 177.338 288.973 180.492 295.671C183.644 302.368 191.068 300.643 196.561 298.411C206.629 294.149 205.104 290.394 202.56 288.161Z" fill="#365DEC"/>
<path d="M195.442 290.597C195.293 290.604 195.144 290.58 195.005 290.528C194.865 290.475 194.737 290.395 194.629 290.293C179.177 272.446 159.737 258.471 137.878 249.497C137.612 249.385 137.4 249.175 137.287 248.909C137.173 248.645 137.166 248.346 137.268 248.077C137.398 247.827 137.611 247.629 137.871 247.518C138.131 247.407 138.421 247.39 138.691 247.468C160.88 256.553 180.604 270.739 196.256 288.872C196.435 289.092 196.525 289.371 196.506 289.654C196.487 289.936 196.361 290.2 196.154 290.394C195.95 290.549 195.696 290.621 195.442 290.597Z" fill="#BF9A5D"/>
<path d="M217.206 292.018L220.562 291.612C222.089 291.511 221.58 289.988 220.562 290.293L217.206 291.105V292.018Z" fill="#1A3EBD"/>
<path d="M185.679 288.568C183.746 288.77 183.746 290.8 185.476 290.089C187.19 289.378 188.958 288.8 190.764 288.365V287.958L185.679 288.568Z" fill="#1A3EBD"/>
<path d="M214.665 289.785H214.563L207.342 288.973C207.225 288.949 207.12 288.886 207.047 288.794C206.972 288.7 206.932 288.585 206.935 288.465C206.898 287.029 207.068 285.593 207.443 284.204C207.505 284.071 207.607 283.961 207.735 283.888C207.863 283.816 208.01 283.784 208.155 283.798C208.28 283.862 208.38 283.969 208.436 284.098C208.491 284.228 208.5 284.373 208.461 284.508C208.147 285.633 207.976 286.792 207.952 287.959L214.156 288.669C214.232 287.367 214.437 286.075 214.766 284.812C214.788 284.743 214.825 284.678 214.874 284.623C214.924 284.569 214.984 284.525 215.052 284.496C215.119 284.468 215.193 284.454 215.266 284.456C215.34 284.458 215.413 284.475 215.478 284.508C215.681 284.508 215.884 284.812 215.783 285.117C215.438 286.48 215.233 287.874 215.172 289.277C215.145 289.43 215.075 289.571 214.969 289.684L214.665 289.785Z" fill="#F0B576"/>
<path d="M139.302 383.35C139.22 383.35 139.143 383.318 139.085 383.261C139.029 383.204 138.996 383.126 138.996 383.046V249.902C138.996 249.7 139.098 249.598 139.199 249.598H139.505C144.386 257.108 151.404 255.485 151.505 255.485C151.608 255.485 151.709 255.485 151.709 255.687C154.659 263.096 163.914 265.429 167.27 265.632L167.473 265.836C170.728 275.882 182.221 280.55 187 282.072C187.102 282.174 187.203 282.275 187.102 282.479C187.091 282.508 187.075 282.534 187.053 282.556C187.03 282.578 187.004 282.594 186.974 282.604C186.945 282.613 186.914 282.617 186.883 282.612C186.852 282.608 186.823 282.597 186.797 282.58C182.016 281.058 170.422 276.288 167.067 266.14C163.507 265.836 154.455 263.4 151.404 255.991C150.184 256.195 144.082 256.906 139.505 250.613V383.046C139.505 383.249 139.403 383.35 139.302 383.35Z" fill="white"/>
<path d="M139.302 388.729C141.043 388.729 142.454 387.32 142.454 385.583C142.454 383.845 141.043 382.438 139.302 382.438C137.56 382.438 136.148 383.845 136.148 385.583C136.148 387.32 137.56 388.729 139.302 388.729Z" fill="white"/>
<path d="M136.353 384.467H142.251L141.641 383.452H136.963C136.668 383.726 136.456 384.078 136.353 384.467Z" fill="#FA4E89"/>
<path d="M194.12 342.352C202.054 342.96 206.935 341.743 209.783 339.612C209.885 337.989 209.885 336.567 209.986 335.146C206.02 336.365 200.833 337.075 193.917 337.278C193.917 338.191 194.019 339.105 194.019 340.018C194.019 340.931 194.12 341.033 194.12 341.54C194.137 341.815 194.103 342.09 194.019 342.352H194.12Z" fill="#43506B"/>
<path d="M172.152 332.509C171.948 333.726 171.846 334.945 171.745 336.264C171.643 337.583 171.643 337.177 171.542 337.583C176.751 338.472 182.021 338.947 187.306 339.004L187.814 334.133C182.568 333.878 177.339 333.336 172.152 332.509Z" fill="#43506B"/>
</g>
</g>
<defs>
<linearGradient id="paint0_linear_1_3197" x1="276.997" y1="263.319" x2="228.741" y2="192.762" gradientUnits="userSpaceOnUse">
<stop offset="0.03" stop-color="white"/>
<stop offset="1" stop-color="#CCBDFF"/>
</linearGradient>
<linearGradient id="paint1_linear_1_3197" x1="116.777" y1="350.679" x2="14.608" y2="350.679" gradientUnits="userSpaceOnUse">
<stop stop-color="white"/>
<stop offset="1" stop-color="#CCBDFF"/>
</linearGradient>
<linearGradient id="paint2_linear_1_3197" x1="125.191" y1="288.735" x2="153.457" y2="261.691" gradientUnits="userSpaceOnUse">
<stop stop-color="white"/>
<stop offset="1" stop-color="#CCBDFF"/>
</linearGradient>
<linearGradient id="paint3_linear_1_3197" x1="360.131" y1="178.816" x2="365.113" y2="207.316" gradientUnits="userSpaceOnUse">
<stop offset="0.26" stop-color="#56BAD6"/>
<stop offset="1" stop-color="#348CB5"/>
</linearGradient>
<linearGradient id="paint4_linear_1_3197" x1="268.129" y1="247.691" x2="264.797" y2="235.631" gradientUnits="userSpaceOnUse">
<stop stop-color="#9E2FAD"/>
<stop offset="1" stop-color="#922DA8"/>
</linearGradient>
<linearGradient id="paint5_linear_1_3197" x1="279.255" y1="278.434" x2="262.123" y2="257.35" gradientUnits="userSpaceOnUse">
<stop stop-color="#9E2FAD"/>
<stop offset="1" stop-color="#AE3DC6"/>
</linearGradient>
<linearGradient id="paint6_linear_1_3197" x1="12584.4" y1="9588.14" x2="12328.5" y2="9370.75" gradientUnits="userSpaceOnUse">
<stop stop-color="#9E2FAD"/>
<stop offset="1" stop-color="#AE3DC6"/>
</linearGradient>
<linearGradient id="paint7_linear_1_3197" x1="29510" y1="9655.81" x2="29315.3" y2="9596.7" gradientUnits="userSpaceOnUse">
<stop stop-color="#9E2FAD"/>
<stop offset="1" stop-color="#AE3DC6"/>
</linearGradient>
<linearGradient id="paint8_linear_1_3197" x1="193.123" y1="247.244" x2="224.652" y2="247.244" gradientUnits="userSpaceOnUse">
<stop stop-color="#9E2FAD"/>
<stop offset="1" stop-color="#B84DCF"/>
</linearGradient>
<clipPath id="clip0_1_3197">
<rect width="405.422" height="399.987" fill="white" transform="translate(0.578125 0.00634766)"/>
</clipPath>
</defs>
</svg>
