<svg width="405" height="400" viewBox="0 0 405 400" fill="none" xmlns="http://www.w3.org/2000/svg">
<g clip-path="url(#clip0_1_3010)">
<mask id="mask0_1_3010" style="mask-type:luminance" maskUnits="userSpaceOnUse" x="-1" y="0" width="405" height="400">
<path d="M403.678 0.00634766H-1V399.994H403.678V0.00634766Z" fill="white"/>
</mask>
<g mask="url(#mask0_1_3010)">
<path d="M-0.898438 54.9376C49.1271 27.958 79.7322 67.2103 96.5091 89.93C150.805 57.0676 217.2 93.5813 213.134 163.566C263.77 169.753 326.403 220.568 263.566 317.735H-0.898438V54.9376Z" fill="#7E61FF"/>
<path d="M103.729 203.022C129.961 183.954 174.903 182.736 191.477 203.022C209.372 198.661 235.198 199.27 249.941 216.511H103.729V203.022Z" fill="#9F80FF"/>
<path d="M153.855 99.3634H249.94C224.216 92.0612 194.119 92.5683 184.562 96.4222C171.852 88.6129 162.498 92.3654 153.855 99.3634Z" fill="#9F80FF"/>
<path d="M36.7224 99.3638C32.9603 98.7553 29.1983 100.885 28.8932 107.477C26.9613 106.666 22.1825 106.463 21.4707 115.49L43.8399 115.287C43.9415 103.725 40.5862 99.9723 36.7224 99.3638Z" fill="#53A0A3"/>
<path d="M27.877 204.543C27.1653 192.779 25.8434 174.419 25.5384 169.349C25.2334 164.277 22.9964 160.018 21.573 156.771C19.8417 152.849 18.7766 148.668 18.4209 144.398C18.1159 139.326 16.6924 125.735 16.6924 121.171C16.6924 116.606 17.3025 115.896 25.2334 114.983C33.1642 114.07 104.034 114.477 117.252 114.983C130.47 115.491 138.808 115.592 143.078 116.302C147.349 117.013 147.653 117.924 147.653 119.75C147.653 121.577 146.535 144.601 146.535 148.252C146.535 151.903 144.806 162.756 144.502 165.697C144.197 168.638 141.35 170.972 139.926 173.101C138.502 175.231 130.267 184.563 129.352 185.982C128.436 187.403 127.521 189.836 127.115 195.618C126.708 201.399 125.081 213.266 124.776 216.005C124.471 218.743 120.607 221.685 116.946 225.032C113.287 228.379 107.999 232.537 104.542 236.087C101.085 239.638 91.5274 248.157 83.5966 246.129C75.6656 244.1 57.262 239.435 50.4495 234.566C43.6371 229.698 36.8247 220.873 34.3844 217.425C31.9441 213.977 28.2838 212.151 27.877 204.543Z" fill="#6E4A9B"/>
<path d="M62.549 125.024C64.2775 132.125 63.7691 142.775 63.5658 145.311C63.3624 147.845 62.8539 160.423 63.159 162.35C63.464 164.277 63.464 168.942 63.5658 172.797C63.5727 173.215 63.467 173.627 63.2598 173.99C63.0525 174.353 62.7513 174.653 62.3878 174.861C62.0241 175.068 61.6113 175.174 61.1925 175.168C60.7737 175.162 60.3642 175.043 60.007 174.826L44.7553 166.102C43.8864 165.627 43.1513 164.941 42.6182 164.109C42.085 163.275 41.771 162.322 41.7049 161.336C41.5016 158.192 41.1966 153.729 41.2983 152.308C41.4 150.889 38.7563 144.6 37.3328 142.267C35.5962 139.166 34.4905 135.754 34.0791 132.226C34.0791 130.198 34.8926 119.75 34.8926 119.75L50.551 120.156L62.549 125.024Z" fill="#5D4282"/>
<path d="M146.637 145.31C146.84 138.007 147.653 121.272 147.653 119.75C147.653 118.229 147.45 117.114 143.993 116.505L140.435 118.432C140.435 118.432 142.875 124.213 143.382 126.242C143.891 128.271 144.501 133.849 144.501 133.849L145.518 145.31H146.637Z" fill="#B783D1"/>
<path d="M128.64 135.675C128.64 135.675 127.521 126.14 126.809 120.663L120.2 116.91L86.5449 122.793C86.5449 122.793 87.2566 136.587 86.9515 140.239C86.6465 143.89 86.2398 146.831 86.9515 148.048C87.6634 149.266 90.0019 153.83 91.4254 156.264C92.849 158.698 94.2724 160.423 94.069 161.64C93.8657 162.857 91.4254 174.115 91.4254 174.115L93.3573 199.066L125.284 212.151C125.894 207.282 126.91 199.776 127.115 195.617C127.521 189.836 128.538 187.3 129.352 185.982C130.165 184.663 131.283 183.548 133.114 181.317L130.673 148.556V142.267L128.64 135.675Z" fill="#5D4282"/>
<path d="M114.607 122.185C117.252 123.808 119.59 126.343 120.2 127.763C120.81 129.183 124.369 132.225 125.284 136.079C126.199 139.933 125.284 138.311 125.284 138.311C123.93 136.694 122.469 135.169 120.912 133.747C119.183 132.428 115.319 129.69 114.71 128.777C113.843 126.622 113.097 124.422 112.473 122.185H114.607Z" fill="#76589B"/>
<path d="M118.674 145.411C137.18 144.093 162.193 144.803 170.632 145.31C179.071 145.817 178.156 146.121 179.275 147.44C180.393 148.758 179.987 152.612 180.089 157.278C180.19 161.943 178.766 169.855 178.766 172.796C178.392 177.316 177.365 181.757 175.716 185.982C173.682 191.155 170.327 193.69 166.362 196.936C162.396 200.182 160.668 199.371 155.685 196.734C150.704 194.097 144.196 190.243 143.585 189.938C142.976 189.634 141.959 189.634 136.265 188.822C130.571 188.011 125.996 187.909 124.978 185.171C123.332 180.284 121.973 175.306 120.911 170.261C120.547 168.027 119.479 165.966 117.861 164.378C116.743 163.161 115.218 161.741 114.303 160.524C113.154 159.016 112.61 157.136 112.778 155.25C112.879 153.019 112.981 149.671 113.184 148.454C113.388 147.237 113.591 145.716 118.674 145.411Z" fill="#6E4A9B"/>
<path d="M171.14 157.38V164.48C171.14 165.697 172.361 167.421 172.768 169.754C173.236 171.987 173.407 174.272 173.276 176.55C173.174 178.68 172.564 177.26 172.259 174.826C171.955 172.391 169.718 169.551 168.396 167.725C167.189 166.258 166.478 164.447 166.362 162.552C166.232 160.446 165.994 158.347 165.65 156.265L171.14 157.38Z" fill="#A06DBA"/>
<path d="M156.906 151.598C164.518 150.486 172.194 149.875 179.886 149.772C179.846 148.961 179.638 148.167 179.275 147.44C178.156 146.121 178.055 145.716 170.633 145.31C163.21 144.904 137.181 144.093 118.676 145.411C113.591 145.716 113.49 147.339 113.185 148.454C112.879 149.57 113.084 149.266 113.084 149.772C116.031 150.077 126.403 151.8 127.724 152.004C129.046 152.207 130.47 153.119 132.504 153.931C134.537 154.742 138.604 156.872 140.739 157.176C145.323 157.795 149.943 158.099 154.568 158.089L171.141 157.378C171.305 156.747 171.305 156.084 171.141 155.452C170.836 154.844 169.82 153.83 164.228 153.018C158.634 152.207 153.754 152.105 156.906 151.598Z" fill="#53A0A3"/>
<path d="M147.449 118.127C146.941 117.316 145.924 116.809 143.078 116.301C140.23 115.795 130.469 115.39 117.251 114.983L108.507 114.374C87.2562 113.969 32.4517 114.071 25.2326 114.679C18.0135 115.287 18.2168 115.997 17.3018 117.316L21.9789 118.026C23.6058 118.331 30.2148 119.75 34.8921 119.75C37.2306 121.474 39.6709 122.996 45.2632 122.996C50.8555 122.996 57.6679 124.72 62.5485 125.024C67.429 125.328 68.2424 126.342 73.428 126.139H93.9669C98.6197 126.159 103.27 125.922 107.896 125.429C112.472 124.821 113.997 123.3 114.608 122.184C118.064 122.184 128.029 120.359 130.673 120.257C136.325 120.143 141.948 119.429 147.449 118.127Z" fill="#53A0A3"/>
<path d="M112.472 78.9771H61.023C60.8882 78.9771 60.7589 79.0304 60.6636 79.1255C60.5682 79.2206 60.5146 79.3497 60.5146 79.4841L61.023 82.4253H111.76L112.472 78.9771Z" fill="#502D80"/>
<path d="M122.539 115.287H106.982L107.898 99.1607L107.999 97.4365H121.522L121.624 99.1607L122.539 115.287Z" fill="#34466E"/>
<path d="M116.031 87.1926C116.069 90.6208 115.831 94.0465 115.319 97.4368C115.116 98.3496 115.015 99.2625 114.812 100.074C113.76 105.552 111.54 110.74 108.304 115.287H102.813L111.558 82.4255L111.863 81.5127H114.812L115.015 82.4255L115.422 84.1498L116.031 87.1926Z" fill="#FADECA"/>
<path d="M126.809 115.287H121.318C118.122 110.718 115.907 105.538 114.81 100.074C114.618 99.2045 114.482 98.3237 114.404 97.4368C113.856 94.0495 113.584 90.6236 113.591 87.1926L114.303 84.1498L114.607 82.4255L114.81 81.5127H117.861L118.065 82.4255L126.809 115.287Z" fill="#FADECA"/>
<path d="M111.761 82.4253C113.388 84.7579 116.031 84.7579 117.658 82.4253H111.761Z" fill="#D9A551"/>
<path d="M112.472 82.4253L112.37 83.0339L108.405 97.4366L107.896 99.1608L103.525 115.288H101.694L110.642 82.4253H112.472Z" fill="#BE73D1"/>
<path d="M127.827 115.288H125.996L121.625 99.1608L121.116 97.4366L117.15 83.0339L117.049 82.4253H118.879L127.827 115.288Z" fill="#BE73D1"/>
<path d="M110.642 82.4253L101.695 115.288H52.0762L61.1256 82.4253H110.642Z" fill="#59338F"/>
<path d="M96.4073 63.1535L98.5426 62.1393C98.6442 62.1393 98.6442 62.0379 98.5426 62.0379L96.4073 61.0237H96.3057L95.3905 58.7925H95.2889L94.272 61.0237L92.0352 62.0379L94.272 63.0521L95.2889 65.2834H95.3905L96.3057 63.0521L96.4073 63.1535Z" fill="#FADECA"/>
<path d="M77.4961 107.376C78.3094 101.798 79.9363 97.9436 81.3598 96.7265C82.7833 95.5094 84.2067 98.1466 85.2236 102.711C87.1555 102.406 88.6806 102.406 90.1042 105.551C90.8987 107.25 91.545 109.015 92.036 110.824C95.6964 110.723 99.6618 112.752 100.069 115.998H77.4961V107.376Z" fill="#53A0A3"/>
<path d="M118.879 78.9771H110.642C110.508 78.9771 110.378 79.0304 110.284 79.1255C110.188 79.2206 110.135 79.3497 110.135 79.4841L110.642 82.4253H118.879L119.387 79.4841C119.387 79.3497 119.333 79.2206 119.238 79.1255C119.143 79.0304 119.014 78.9771 118.879 78.9771Z" fill="#BE73D1"/>
<path d="M79.0206 62.0386H50.5508V115.227H79.0206V62.0386Z" fill="#EDC25C"/>
<path d="M53.7029 33.7402H75.8687C76.7046 33.7402 77.5063 34.0715 78.0974 34.6612C78.6886 35.2507 79.0206 36.0505 79.0206 36.8843V50.7788H50.5508V36.8843C50.5508 36.4715 50.6323 36.0626 50.7908 35.6812C50.9491 35.2996 51.1813 34.9531 51.474 34.6612C51.7667 34.3691 52.1142 34.1376 52.4966 33.9796C52.879 33.8216 53.2888 33.7402 53.7029 33.7402Z" fill="#F065E9"/>
<path d="M79.0206 50.7788H50.5508V62.0466H79.0206V50.7788Z" fill="#BBD0FF"/>
<path d="M77.0889 50.7788H73.6318V62.0466H77.0889V50.7788Z" fill="white"/>
<path d="M66.6159 50.7788H50.5508V62.0466H66.6159V50.7788Z" fill="#A3B3FF"/>
<path d="M58.2784 62.0386H50.5508V115.227H58.2784V62.0386Z" fill="#D9A551"/>
<path d="M58.2781 93.3794H43.8398V115.247H58.2781V93.3794Z" fill="#EDC25C"/>
<path d="M43.8398 93.3794H32.6553V115.247H43.8398V93.3794Z" fill="#D9A551"/>
<path d="M61.1253 93.3794H58.2783V115.247H61.1253V93.3794Z" fill="#FFD97D"/>
<path d="M32.6553 93.3794H61.125L48.822 71.2684C48.7388 71.1236 48.621 71.0015 48.479 70.9131C48.3372 70.8246 48.1755 70.7724 48.0086 70.7612H45.7717C45.6169 70.7694 45.4678 70.8213 45.3417 70.9112C45.2156 71.0011 45.1178 71.1249 45.06 71.2684L32.6553 93.3794Z" fill="#FADECA"/>
<path d="M78.9195 62.0386H75.0557V115.227H78.9195V62.0386Z" fill="#FFD97D"/>
<path d="M79.0206 57.5757H50.5508V59.1781H79.0206V57.5757Z" fill="#7C73FF"/>
<path d="M51.059 88.7139L43.8398 93.3792V99.363H58.2781V93.3792L51.059 88.7139Z" fill="#EDC25C"/>
<path d="M38.2475 88.7139L32.6553 93.3792V99.363H43.8398V93.3792L38.2475 88.7139Z" fill="#D9A551"/>
<path d="M60.2102 91.7563L58.2783 93.379V99.3628H61.1253V93.379L60.2102 91.7563Z" fill="#FFD97D"/>
<path d="M51.6691 76.4407L48.8222 71.2683C48.7389 71.1235 48.6211 71.0015 48.4791 70.9131C48.3373 70.8246 48.1757 70.7724 48.0087 70.7612H45.7718C45.6171 70.7694 45.4679 70.8213 45.3418 70.9112C45.2158 71.001 45.1179 71.1249 45.0601 71.2683L40.2812 79.7876L51.6691 76.4407Z" fill="#34466E"/>
<path d="M60.2101 91.7558L58.2782 93.3785L51.0591 88.7132L48.9238 77.2527L51.6692 76.4414L60.2101 91.7558Z" fill="white"/>
<path d="M70.8868 88.409C70.8868 86.7286 69.5211 85.3662 67.8365 85.3662C66.1519 85.3662 64.7861 86.7286 64.7861 88.409V100.966C64.7861 102.646 66.1519 104.009 67.8365 104.009C69.5211 104.009 70.8868 102.646 70.8868 100.966V88.409Z" fill="#E6B24A"/>
<path d="M66.8186 107.579C66.3528 106.171 65.4738 104.934 64.2955 104.03C63.117 103.126 61.6936 102.596 60.2096 102.508C57.1375 102.335 54.1058 103.271 51.6686 105.145C49.3301 106.97 48.0083 111.737 46.7881 115.794H76.5797C76.5797 108.796 71.3941 106.971 66.8186 107.579Z" fill="#3C9186"/>
<path d="M64.2773 118.838C64.8874 112.955 66.311 111.637 67.0227 113.157C67.7344 114.679 68.3445 118.838 68.3445 118.838H64.2773Z" fill="#85B386"/>
<path d="M86.4433 115.288C86.1382 113.564 84.7148 112.245 83.7997 112.55C82.8846 112.854 81.7661 114.983 81.3594 118.432H89.3919C88.782 116.505 88.8836 115.997 86.4433 115.288Z" fill="#85B386"/>
<path d="M160.973 192.271C162.67 191.274 164.101 189.882 165.142 188.213C165.955 186.895 165.853 183.853 165.65 182.331C165.446 180.809 159.041 175.231 158.126 174.115C156.415 171.897 154.982 169.478 153.856 166.914C153.246 164.886 146.942 161.843 144.806 161.437C142.671 161.032 142.162 162.857 142.162 164.479C142.162 166.103 142.569 170.869 142.162 172.29C141.756 173.71 141.857 176.346 143.383 177.564C145.524 179.851 147.496 182.292 149.28 184.867C150.195 186.389 159.549 193.083 160.973 192.271Z" fill="#5D4282"/>
<path d="M134.842 140.137C134.842 140.137 134.13 135.065 132.198 132.226C130.266 129.386 127.42 130.4 126.605 132.226C125.792 134.051 126.402 135.369 125.284 136.08C124.165 136.79 121.013 141.759 120.2 146.221H141.044C140.739 141.962 137.79 140.036 134.842 140.137Z" fill="#3C9186"/>
<path d="M147.45 118.128C143.837 118.992 140.168 119.603 136.469 119.953C131.894 117.316 124.268 117.011 120.201 116.91C116.134 116.809 113.287 115.693 109.423 115.288H126.606C134.537 115.592 139.926 115.795 143.078 116.302C146.23 116.809 147.043 117.316 147.45 118.128Z" fill="#69BA91"/>
<path d="M179.275 147.44C178.157 146.121 178.055 145.716 170.632 145.311C165.549 145.006 154.567 144.601 142.468 144.702C147.958 145.107 154.059 146.02 154.872 147.034C160.464 146.426 168.192 146.73 169.005 147.744C171.093 147.554 173.194 147.904 175.106 148.758C175.358 148.86 175.586 149.011 175.779 149.204C175.971 149.395 176.122 149.623 176.224 149.874H179.885C179.859 149.029 179.651 148.198 179.275 147.44Z" fill="#69BA91"/>
<path d="M155.889 151.903C153.743 149.887 150.906 148.763 147.958 148.758C149.992 149.57 150.805 153.12 150.805 153.12C152.396 153.006 153.993 153.006 155.584 153.12C157.719 153.322 161.583 154.336 163.006 154.439C164.429 154.54 166.463 155.554 166.463 156.366V157.582L171.141 157.38C171.304 156.747 171.304 156.084 171.141 155.453C170.836 154.844 169.818 153.83 164.226 153.018C160.159 152.41 156.499 152.207 155.99 151.903H155.889Z" fill="#69BA91"/>
<path d="M192.086 253.229C202.152 251.403 214.252 252.316 219.946 253.229C220.962 257.589 220.047 263.675 217.201 266.211C214.354 268.747 213.133 269.456 212.93 271.181C212.727 272.905 210.897 276.556 204.491 274.427C198.085 272.296 194.12 270.268 193.001 265.096C191.883 259.923 188.629 253.837 192.086 253.229Z" fill="#6356D6"/>
<path d="M179.274 121.577C179.376 125.228 180.189 126.141 181.105 126.85C182.02 127.56 182.833 126.445 183.748 124.822C184.435 123.332 184.715 121.687 184.562 120.055C184.562 119.345 183.951 119.446 182.426 119.446C181.416 119.34 180.395 119.516 179.478 119.954C179.173 120.258 179.173 120.563 179.274 121.577Z" fill="#5D51C9"/>
<path d="M264.989 309.42C254.11 257.285 189.646 263.879 170.429 267.53C160.973 218.237 118.675 193.894 73.1231 188.822C65.1922 169.146 41.603 145.209 -0.898438 157.279V196.835V399.994H403.678C393.206 346.339 354.364 306.174 264.989 309.42Z" fill="#CCBDFF"/>
<path d="M55.2283 210.73C104.135 209.514 149.484 233.958 170.43 267.53C160.974 218.237 118.675 193.894 73.1236 188.822C68.0398 176.144 56.3468 161.639 37.333 156.265C49.331 168.436 49.7377 178.477 55.2283 210.73Z" fill="url(#paint0_linear_1_3010)"/>
<path d="M264.989 309.419C257.567 273.818 225.03 265.602 199.102 265.197C223.199 268.138 245.569 285.279 245.976 311.752C201.643 321.692 191.883 336.095 191.883 336.095C262.04 335.385 315.93 347.251 353.043 399.994H403.678C393.205 346.339 354.365 306.174 264.989 309.419Z" fill="url(#paint1_linear_1_3010)"/>
<path d="M338.198 336.905L340.435 335.891L338.198 334.877H338.096L337.18 332.646C337.079 332.545 337.079 332.545 337.079 332.646L336.062 334.877L333.825 335.891L336.062 336.905L337.079 339.137C337.079 339.238 337.079 339.238 337.18 339.137L338.096 336.905H338.198Z" fill="#FFFAE6"/>
<path d="M286.239 295.118L288.985 293.9L286.239 292.683L285.02 290.046C285.02 289.945 285.02 289.945 284.918 290.046L283.799 292.683H283.698L281.055 293.9L283.698 295.118H283.799L284.918 297.754C285.02 297.856 285.02 297.856 285.02 297.754L286.239 295.118Z" fill="#FFF5CF"/>
<path d="M111.863 189.532L114.506 188.315L111.863 187.098H111.761L110.642 184.461H110.54L109.321 187.098L106.575 188.315L109.321 189.532L110.54 192.169H110.642L111.761 189.532H111.863Z" fill="#C495DE"/>
<path d="M192.29 299.276L195.95 297.653C196.052 297.653 196.052 297.552 195.95 297.552L192.29 295.929L190.663 292.277H190.459L188.833 295.929L185.172 297.552C185.07 297.552 185.07 297.653 185.172 297.653L188.833 299.276L190.459 302.927H190.663L192.29 299.276Z" fill="#ADEDFF"/>
<path d="M154.262 317.431L155.685 316.722L154.262 316.113L153.55 314.592H153.448L152.838 316.113L151.313 316.722L152.838 317.431L153.448 318.852H153.55L154.262 317.431Z" fill="#FFEFC4"/>
<path d="M127.317 272.601C132.198 270.674 133.927 269.761 135.045 271.283C135.787 272.317 136.178 273.561 136.164 274.832L127.317 272.601Z" fill="#6C6C96"/>
<path d="M130.164 255.359C125.589 262.661 122.335 272.703 122.335 272.703L124.471 273.413C126.708 266.11 130.978 256.069 130.978 256.069L130.164 255.359Z" fill="#824B6F"/>
<path d="M128.436 257.082L124.98 260.835C124.065 257.995 125.081 256.068 127.724 255.662C126.606 255.155 123.149 252.925 123.149 252.925C124.775 252.316 126.809 252.62 128.945 254.648C129.758 253.431 131.588 252.012 134.638 253.431L130.979 255.358C134.028 255.764 134.843 257.488 136.164 259.415L131.08 257.691L130.775 263.674C130.775 263.674 128.03 259.415 128.436 257.082Z" fill="#58A67E"/>
<path d="M32.4518 201.806L32.9602 192.981C33.0296 191.847 32.8654 190.711 32.4776 189.643C32.0898 188.574 31.4866 187.596 30.7055 186.769C29.9242 185.943 28.9814 185.284 27.9352 184.835C26.889 184.386 25.7616 184.155 24.6226 184.157C23.4879 184.169 22.3673 184.409 21.3278 184.864C20.2884 185.318 19.3515 185.977 18.5731 186.801C17.7948 187.625 17.1909 188.596 16.7978 189.658C16.4046 190.72 16.2303 191.85 16.2849 192.981L16.895 201.806C17.203 207.961 15.3314 214.028 11.6078 218.946C6.1172 226.046 7.23565 232.031 12.3195 264.183H36.9256C42.1112 232.031 43.128 226.046 37.6373 218.946C33.9018 214.039 32.0612 207.955 32.4518 201.806Z" fill="#A281C7"/>
<path d="M52.1779 206.876L52.4829 201.095C52.5399 200.347 52.4392 199.596 52.1876 198.888C51.9359 198.182 51.5387 197.535 51.0215 196.99C50.5045 196.446 49.8789 196.015 49.1849 195.727C48.491 195.438 47.744 195.297 46.9923 195.313C46.2491 195.311 45.5135 195.462 44.8316 195.758C44.1498 196.053 43.5366 196.486 43.0305 197.028C42.5243 197.572 42.1363 198.213 41.8907 198.913C41.6451 199.613 41.5473 200.356 41.6034 201.095L41.9085 206.876C42.1613 210.923 40.9328 214.924 38.4514 218.134C34.8927 222.902 35.6044 226.857 38.9598 247.954H55.1266C58.482 226.857 59.1937 222.902 55.635 218.134C53.1535 214.924 51.9251 210.923 52.1779 206.876Z" fill="#A281C7"/>
<path d="M139.823 397.661H-0.898438V288.423L57.4647 278.585L147.449 284.367C147.449 288.221 144.502 310.028 144.502 310.028C145.315 313.07 147.653 317.634 148.873 322.401C150.094 327.169 150.5 329.096 150.601 332.849V346.44L151.822 363.987L139.823 397.661Z" fill="#824B6F"/>
<path d="M51.364 294.408L54.1093 313.273L57.1597 322.504L58.0747 359.22H-0.898438V282.236L52.0758 285.178L51.364 294.408Z" fill="#5A3C5C"/>
<path d="M38.5527 300.594L44.7551 309.926L48.7205 324.633L35.8074 319.866L33.0621 308.607C33.0621 308.607 33.1638 302.624 33.0621 301.102C32.9604 299.58 35.9091 299.073 38.5527 300.594Z" fill="#754465"/>
<path d="M81.8676 298.465L87.5615 313.476L93.7639 322.503L95.0857 333.762L97.221 346.744L77.0887 350.294V335.689L78.6139 324.43L72.9199 312.867V295.321L81.8676 298.465Z" fill="#734163"/>
<path d="M108.812 284.062L110.032 298.262C110.032 298.262 113.387 302.826 116.234 306.275C119.081 309.723 125.793 316.722 127.419 318.649C129.046 320.576 129.351 320.881 130.977 315.099C132.034 311.266 132.849 307.369 133.418 303.435C133.418 303.435 132.706 298.465 131.892 297.147L126.606 289.64L124.775 282.236L108.812 284.062Z" fill="#754465"/>
<path d="M130.978 300.595C130.978 302.015 130.572 307.086 130.572 307.086L129.86 308.607L128.436 305.463L127.317 299.581L130.978 300.595Z" fill="#824B6F"/>
<path d="M148.874 322.402C147.654 317.635 145.315 313.071 144.502 310.028C144.502 310.028 147.45 288.221 147.45 284.367L144.502 284.165L142.366 285.787L141.858 294.104L142.061 301.406L139.316 309.318C139.316 309.318 144.4 320.272 144.502 320.678L146.942 329.198L148.568 337.312L150.602 337.007V332.849C150.501 329.097 150.094 327.17 148.874 322.402Z" fill="#966290"/>
<path d="M103.728 299.581L103.931 311.752C103.931 311.752 109.625 320.272 110.235 322.504L111.456 333.762L100.067 314.389C100.067 314.389 100.677 309.825 100.677 307.797C100.677 305.767 100.067 299.581 100.067 299.581H103.728Z" fill="#966290"/>
<path d="M-0.898438 350.193C77.8003 337.312 126.708 327.981 160.16 324.33C193.612 320.678 234.385 325.749 274.344 336.298C290.714 340.557 296.001 346.034 301.085 366.928C306.169 387.822 307.288 399.994 307.288 399.994H-0.898438V350.193Z" fill="#6EAC8D"/>
<path d="M203.067 354.555C209.88 354.251 215.777 355.366 217.1 358.104L203.067 354.555Z" fill="#629987"/>
<path d="M65.8018 350.294C89.2893 348.469 107.896 353.54 114.403 369.16L81.8668 382.143L65.8018 377.68V350.294Z" fill="#508F86"/>
<path d="M114.2 386.909C123.962 375.753 143.788 367.638 159.549 377.274C175.309 386.909 175.716 391.17 175.716 391.17C161.582 385.286 133.621 382.65 114.2 386.909Z" fill="#629987"/>
<path d="M239.875 327.981C240.282 318.345 244.248 314.795 246.383 313.78C248.519 312.766 248.519 316.62 245.976 321.793C251.975 317.938 254.314 319.156 254.618 320.779C254.924 322.401 250.247 324.937 247.196 326.358C253.5 325.241 259.601 326.966 250.857 330.009C242.112 333.052 239.266 333.559 239.266 333.559L239.875 327.981Z" fill="#92D18F"/>
<path d="M301.085 364.292C296.002 344.615 290.714 339.442 274.344 335.385C234.384 325.445 193.714 319.867 160.159 323.417C141.552 325.445 103.728 332.748 72.9199 337.717C90.5102 336.804 107.999 336.602 123.759 337.312C144.501 335.182 165.447 340.557 176.835 344.311C190.053 344.716 198.288 348.57 198.288 348.57C198.288 348.57 224.827 338.529 245.365 348.57C262.855 346.339 276.987 347.455 290.917 352.526C296.611 354.656 297.221 356.075 301.085 364.292Z" fill="#85C28D"/>
<path d="M190.561 327.777C189.34 325.242 184.359 324.227 181.207 325.951L190.561 327.777Z" fill="#BAD17B"/>
<path d="M248.314 341.166C244.462 341.529 240.592 341.698 236.723 341.673C234.995 341.673 235.91 339.746 241.806 339.746C247.704 339.746 248.314 341.166 248.314 341.166Z" fill="#6AA88D"/>
<path d="M181.208 322.807C178.766 318.344 182.63 315.302 186.088 317.431C186.494 312.361 197.373 308.405 201.034 315.403C204.695 322.402 204.695 323.618 204.695 323.618L181.208 322.807Z" fill="#6EAC8D"/>
<path d="M228.081 334.573C208.05 337.514 184.867 339.746 174.395 339.746C163.922 339.746 165.447 335.385 191.273 332.95C217.1 330.517 228.081 334.573 228.081 334.573Z" fill="#6AA88D"/>
<path d="M295.696 348.57C290.307 362.06 286.748 360.234 280.241 364.19C247.806 382.751 221.979 399.994 221.979 399.994H307.795C307.795 399.994 306.779 387.316 301.593 365.813C299.865 358.307 298.035 352.83 295.696 348.57Z" fill="#78426A"/>
<path d="M275.157 367.842C278.52 372.312 281.099 377.318 282.783 382.65L283.596 388.431L285.223 389.141C285.223 389.141 285.02 385.287 284.918 383.563C284.817 381.838 282.783 375.246 282.783 375.246L277.903 366.118L275.157 367.842Z" fill="#5A3C5C"/>
<path d="M257.363 378.593C259.815 383.913 261.361 389.603 261.939 395.43L262.854 399.994H221.979L257.363 378.593Z" fill="#5A3C5C"/>
<path d="M244.248 389.14L252.992 394.414C253.45 394.54 253.94 394.485 254.358 394.258C254.775 394.031 255.088 393.65 255.229 393.197C256.042 391.371 253.501 385.591 252.789 383.765C252.26 382.592 251.851 381.369 251.568 380.114L244.248 389.14Z" fill="#78426A"/>
<path d="M301.593 365.914C299.865 358.51 298.035 352.931 295.696 348.671C293.154 354.858 288.884 357.8 286.748 359.524L288.578 361.756C294.273 371.188 295.696 383.766 295.696 383.766C295.696 383.766 301.899 394.821 302.305 399.994H307.796C307.796 399.994 306.779 387.316 301.593 365.914Z" fill="#8F516F"/>
<path d="M304.237 377.578C303.525 374.028 302.609 370.073 301.593 365.711C299.865 358.307 298.035 352.83 295.696 348.57C295.076 350.02 294.327 351.413 293.459 352.729L292.442 356.786C294.984 361.451 297.831 368.146 297.831 368.146L301.084 372L304.237 377.68V377.578Z" fill="#BF6172"/>
<path d="M283.088 363.987C274.649 374.536 263.973 379.1 251.975 382.041C239.977 393.706 223.81 399.994 223.81 399.994H177.75C177.75 399.994 214.863 388.939 226.148 380.723C240.587 377.072 255.533 372.101 265.193 363.886C269.463 361.857 292.138 359.93 293.562 345.934C294.401 346.74 295.119 347.662 295.696 348.672C295.696 354.858 290.206 360.133 283.088 363.987Z" fill="#609684"/>
<path d="M95.1872 189.33L95.899 178.172C95.9966 176.729 95.7954 175.28 95.3079 173.917C94.8204 172.554 94.057 171.306 93.0651 170.25C92.0733 169.194 90.8743 168.353 89.5426 167.779C88.2109 167.205 86.7751 166.911 85.3245 166.914C83.8738 166.911 82.438 167.205 81.1063 167.779C79.7747 168.353 78.5757 169.194 77.5838 170.25C76.592 171.306 75.8286 172.554 75.3411 173.917C74.8535 175.28 74.6523 176.729 74.75 178.172L75.36 189.33C75.8763 197.204 73.4897 204.995 68.6493 211.238C61.7352 220.265 63.057 227.973 69.666 268.95H100.983C107.49 227.973 108.914 220.265 101.898 211.238C97.1474 204.95 94.7713 197.192 95.1872 189.33Z" fill="#FFDB9E"/>
<path d="M81.8677 221.482L83.4945 220.771L81.8677 220.061L81.156 218.541L80.4442 219.96L78.8174 220.67L80.4442 221.38L81.156 223.002L81.8677 221.38V221.482Z" fill="white"/>
<path d="M71.4959 239.435C82.6805 226.858 96.5087 232.944 98.644 244.912C107.896 236.088 117.556 243.188 117.963 254.953C118.37 266.719 117.963 273.514 117.963 273.514H67.3271L71.4959 239.435Z" fill="#69BA91"/>
<path d="M68.5478 249.476C83.1895 246.434 88.9851 248.056 91.8321 257.285C104.237 256.474 108.609 261.038 111.964 270.166L59.9053 263.778L68.5478 249.476Z" fill="#4C9677"/>
<path d="M101.898 211.238C97.1472 204.95 94.7711 197.193 95.187 189.33L95.8987 178.172C96.0456 175.971 95.4967 173.779 94.3294 171.905C93.1621 170.031 91.4351 168.57 89.3913 167.726C91.3232 173.812 89.3913 180.505 88.6796 185.679C87.9679 190.851 87.2561 200.183 91.5266 205.761C95.7971 211.339 103.931 216.817 106.575 226.452C106.575 219.352 105.151 215.396 101.898 211.238Z" fill="#FFEFC4"/>
<path d="M147.449 284.367C135.045 288.83 126.098 284.873 122.031 285.077C117.963 285.28 108.609 285.077 101.288 284.468C95.6728 285.003 90.0176 284.969 84.4093 284.367C88.6799 285.178 90.3066 288.119 92.7469 290.046C96.9158 290.757 100.779 294.509 101.695 297.147C104.135 297.857 103.728 299.58 103.728 299.58C98.496 300.19 93.2355 300.529 87.9681 300.594C83.2909 300.594 71.2929 297.958 65.8023 297.248C60.3117 296.538 37.5358 291.365 37.5358 291.365C37.5358 291.365 14.6583 291.365 -0.898438 288.423V258.908C17.9898 257.367 37.0026 258.597 55.5329 262.56C81.6641 263.878 97.4241 266.515 114.709 270.369C131.994 274.224 142.366 274.629 144.908 277.876C147.449 281.121 147.653 280.918 147.449 284.367Z" fill="#58A67E"/>
<path d="M89.3916 275.846H105.152C91.2218 271.282 89.3916 275.846 89.3916 275.846Z" fill="#4C9677"/>
<path d="M114.709 270.369C109.829 269.254 105.05 268.24 100.067 267.428C112.675 271.384 118.776 273.919 119.691 275.846C132.706 275.949 136.874 278.078 138.399 280.513C139.582 280.776 140.632 281.452 141.359 282.419C142.086 283.386 142.443 284.581 142.366 285.786C143.992 285.381 145.721 284.975 147.449 284.367C147.652 280.918 147.246 280.716 144.907 277.876C142.569 275.036 131.791 273.007 114.709 270.369Z" fill="#85C286"/>
<path d="M193.815 362.668C185.985 360.741 174.292 359.523 163.108 362.261C158.634 360.943 152.432 360.842 144.501 362.16C140.739 352.323 123.454 350.294 107.389 350.091C130.47 342.789 153.652 347.15 158.431 354.858C172.87 350.801 187.715 352.931 193.815 362.668Z" fill="#629987"/>
<path d="M141.857 399.994H-0.898438V308.303C16.4885 301.001 27.063 301.914 27.8765 308.303C39.4677 305.464 51.5673 306.275 50.1439 315.505C63.4637 316.215 71.1912 324.735 67.3275 339.949C79.8338 337.514 77.3936 349.99 74.9533 354.656C81.5624 355.975 81.2574 361.553 77.1902 367.842C83.7992 366.828 91.9336 367.03 92.7469 371.797C101.39 368.348 109.625 362.365 115.624 364.494C121.624 366.624 121.115 373.115 121.115 373.115C129.961 371.797 134.13 372.507 132.605 378.592C131.71 382.254 130.554 385.847 129.148 389.344C139.519 389.243 145.62 389.953 141.857 399.994Z" fill="#1D2B38"/>
<path d="M288.579 389.242C281.563 386.402 273.53 383.258 269.463 382.751C265.396 382.243 269.057 384.272 274.954 389.242C278.687 392.454 282.062 396.059 285.02 399.992H297.832C296.306 395.733 295.595 391.98 288.579 389.242Z" fill="#854D76"/>
<path d="M181.919 335.385C185.375 324.937 193.204 323.417 194.729 322.909C195.035 310.332 194.832 308.101 203.881 305.362C212.93 302.624 225.132 301.812 232.148 305.362C239.163 308.912 241.908 319.359 242.214 324.532C242.415 327.165 242.415 329.81 242.214 332.444C242.214 332.444 219.539 337.616 181.919 335.385Z" fill="#8D8CC4"/>
<path d="M49.3308 281.628C69.1535 281.628 85.2231 265.598 85.2231 245.825C85.2231 226.05 69.1535 210.021 49.3308 210.021C29.508 210.021 13.4385 226.05 13.4385 245.825C13.4385 265.598 29.508 281.628 49.3308 281.628Z" fill="#6238EB"/>
<path d="M65.0906 213.57C59.7286 210.932 53.7855 209.689 47.8128 209.955C41.8402 210.222 36.0318 211.988 30.9268 215.092C47.0936 217.83 54.3127 212.151 65.0906 213.57Z" fill="#632ADE"/>
<path d="M85.0198 249.881C76.5805 239.941 59.3969 241.058 50.9576 247.345C52.8895 231.118 26.7583 219.352 16.6922 230.914C14.5641 235.6 13.4552 240.681 13.4385 245.825C13.4327 252.057 15.0629 258.183 18.1667 263.593C21.2705 269.002 25.7399 273.506 31.1304 276.659L66.311 277.469C71.437 274.727 75.8181 270.784 79.0772 265.978C82.3363 261.172 84.3757 255.648 85.0198 249.881Z" fill="#632ADE"/>
<path d="M61.7354 207.586L63.9723 206.674L61.7354 205.66L60.7186 203.428H60.6169L59.7018 205.66H59.6002L57.4649 206.674C57.3633 206.674 57.3633 206.674 57.4649 206.775L59.6002 207.688H59.7018L60.6169 209.919H60.7186L61.7354 207.688V207.586Z" fill="#82B8E8"/>
<path d="M44.8574 255.257C36.6215 243.897 35.1979 232.639 15.9808 232.538C13.4541 238.859 12.7912 245.769 14.0701 252.454C15.3492 259.138 18.5168 265.32 23.2 270.268L35.503 275.949L67.8366 276.557C75.6373 271.857 81.3742 264.397 83.9017 255.663C70.3786 258.502 51.1615 263.878 44.8574 255.257Z" fill="#6238EB"/>
<path d="M13.6418 242.376C13.5401 243.491 13.4385 244.608 13.4385 245.825C13.4641 254.913 16.9537 263.651 23.1996 270.269L30.8254 273.819C32.244 270.952 33.401 267.965 34.2825 264.893C41.8066 239.232 19.6408 236.798 13.6418 242.376Z" fill="#632ADE"/>
<path d="M28.5881 249.476C27.7747 244.101 19.132 241.767 13.7432 250.084C14.6562 257.646 17.9696 264.719 23.1992 270.269L24.4193 270.877C19.5387 261.038 29.4015 255.257 28.5881 249.476Z" fill="#6238EB"/>
<path opacity="0.32" d="M80.2408 264.082C81.0541 254.547 77.2921 242.477 69.4629 231.422C61.6337 220.367 51.2626 213.064 41.9082 210.731C47.1504 209.59 52.5828 209.64 57.8031 210.877C63.0235 212.113 67.8985 214.505 72.0671 217.874C76.2359 221.244 79.5918 225.506 81.8866 230.344C84.1814 235.181 85.3564 240.473 85.3246 245.825C85.3454 252.26 83.5863 258.577 80.2408 264.082Z" fill="url(#paint2_linear_1_3010)"/>
<path d="M67.2044 229.033C68.1292 227.906 67.505 225.871 65.8103 224.487C64.1156 223.104 61.9921 222.895 61.0674 224.022C60.1427 225.149 60.7668 227.185 62.4616 228.569C64.1563 229.952 66.2797 230.16 67.2044 229.033Z" fill="#23283D"/>
<path d="M52.6059 228.998C53.5305 227.872 52.9064 225.836 51.2117 224.452C49.5169 223.069 47.3934 222.86 46.4688 223.987C45.544 225.114 46.1682 227.15 47.863 228.534C49.5576 229.917 51.6811 230.125 52.6059 228.998Z" fill="#23283D"/>
<path d="M64.4936 239.875C65.4182 238.748 64.7941 236.712 63.0994 235.328C61.4046 233.944 59.2812 233.737 58.3565 234.864C57.4317 235.991 58.0559 238.026 59.7507 239.409C61.4454 240.793 63.5688 241.002 64.4936 239.875Z" fill="#23283D"/>
<path d="M62.854 223.105C62.5921 223.077 62.3273 223.103 62.0757 223.181C61.8242 223.258 61.5912 223.387 61.3912 223.558C61.1912 223.729 61.0285 223.938 60.9129 224.175C60.7972 224.411 60.7311 224.668 60.7188 224.931C62.0386 224.658 63.4098 224.783 64.6586 225.288C65.9074 225.794 66.9779 226.658 67.7345 227.77C67.7739 227.277 67.6678 226.784 67.4295 226.35C67.0493 225.435 66.4185 224.646 65.6094 224.072C64.8001 223.498 63.8453 223.162 62.854 223.105Z" fill="#3A3C66"/>
<path d="M48.3139 223.105C48.052 223.077 47.7871 223.103 47.5356 223.181C47.2841 223.258 47.0512 223.387 46.8512 223.558C46.6512 223.729 46.4884 223.938 46.3727 224.175C46.2571 224.411 46.191 224.668 46.1787 224.931C47.4986 224.658 48.8696 224.783 50.1185 225.288C51.3673 225.794 52.4379 226.658 53.1945 227.77C53.1815 227.282 53.0781 226.8 52.8894 226.35C52.5092 225.435 51.8784 224.646 51.0692 224.072C50.26 223.498 49.3051 223.162 48.3139 223.105Z" fill="#2D2E4F"/>
<path d="M60.2105 233.958C59.6873 233.928 59.1732 234.102 58.7754 234.443C58.3777 234.783 58.1268 235.263 58.0752 235.783C59.4059 235.493 60.7942 235.619 62.0501 236.145C63.3059 236.672 64.368 237.573 65.091 238.724C65.1276 238.199 65.0223 237.674 64.786 237.202C64.3866 236.301 63.7508 235.524 62.9455 234.952C62.1402 234.382 61.1953 234.037 60.2105 233.958Z" fill="#2D2E4F"/>
<path d="M95.1875 189.33V191.866H75.4621C75.481 191.019 75.447 190.172 75.3604 189.33V187.707H95.2893L95.1875 189.33Z" fill="#D44E7B"/>
<path d="M98.9489 206.572H71.6992C72.3793 205.231 72.9571 203.841 73.4278 202.414H97.1187C97.6242 203.843 98.2359 205.234 98.9489 206.572Z" fill="#D44E7B"/>
<path d="M-0.898438 247.954C19.7422 238.014 34.0788 250.389 39.366 261.343C52.5842 259.517 58.7866 262.053 61.5318 267.733H-0.898438V247.954Z" fill="#58A67E"/>
<path d="M81.8677 267.732H16.082V284.081H81.8677V267.732Z" fill="#58A67E"/>
<path d="M65.8023 297.248C71.2929 297.958 83.2909 300.594 87.9681 300.594C93.2355 300.529 98.496 300.19 103.728 299.58C103.728 299.58 104.135 297.856 101.695 297.147C100.779 294.509 96.9158 290.757 92.7469 290.046C90.3066 288.119 88.6799 285.178 84.4093 284.367C89.2432 284.803 94.1014 284.904 98.9493 284.671C97.9325 281.527 93.2554 278.991 88.8832 278.585C85.2228 274.122 79.8338 270.877 68.5476 270.877H33.5704L28.7915 267.732H-0.898438V288.423C14.6583 291.365 37.5358 291.365 37.5358 291.365C37.5358 291.365 60.3117 296.538 65.8023 297.248Z" fill="#4C9677"/>
<path d="M-1 259.72C-0.388837 258.756 0.443465 257.949 1.42828 257.369C2.41311 256.788 3.52225 256.448 4.66425 256.379C5.80627 256.31 6.94845 256.513 7.99664 256.97C9.04483 257.428 9.969 258.127 10.693 259.01C10.998 250.187 15.1668 248.462 17.7088 249.274C20.2507 250.084 22.8943 252.722 22.8943 263.473C29.5034 263.777 33.4688 267.835 33.8755 271.891H-0.898322L-1 259.72Z" fill="#437A6D"/>
<path d="M99.5597 251.808C97.8312 255.054 95.5943 265.298 95.0859 275.847H105.152C104.034 262.762 101.187 248.664 99.5597 251.808Z" fill="#468069"/>
<path d="M84.7148 269.456C85.3248 261.343 86.1383 257.894 86.9517 256.88C87.7652 255.866 90.0021 263.067 90.4088 269.456H84.7148Z" fill="#468069"/>
<path d="M26.6562 275.846H57.1596V258.95H26.6562V275.846Z" fill="#82B8E8"/>
<path d="M43.1279 275.846H57.1595V258.95H43.1279V275.846Z" fill="#BBD0FF"/>
<path d="M54.1092 275.949H49.9404V269.863C49.9404 269.325 50.1547 268.809 50.5361 268.428C50.9175 268.048 51.4347 267.835 51.9741 267.835C52.5134 267.835 53.0306 268.048 53.412 268.428C53.7934 268.809 54.0076 269.325 54.0076 269.863V275.949H54.1092Z" fill="#827D99"/>
<path d="M57.16 266.82L49.6357 259.01H57.16V266.82Z" fill="#D4E1FF"/>
<path d="M26.6562 259.01H57.1596L50.1439 253.735H33.672L26.6562 259.01Z" fill="#23283D"/>
<path d="M43.1279 259.01L50.1437 253.735L57.1595 259.01H43.1279Z" fill="#4E4766"/>
<path d="M37.8408 272.398C38.7955 272.398 39.5694 271.626 39.5694 270.674C39.5694 269.722 38.7955 268.95 37.8408 268.95C36.8862 268.95 36.1123 269.722 36.1123 270.674C36.1123 271.626 36.8862 272.398 37.8408 272.398Z" fill="#6BA1D1"/>
<path d="M31.334 272.398C32.2886 272.398 33.0625 271.626 33.0625 270.674C33.0625 269.722 32.2886 268.95 31.334 268.95C30.3794 268.95 29.6055 269.722 29.6055 270.674C29.6055 271.626 30.3794 272.398 31.334 272.398Z" fill="#6BA1D1"/>
<path d="M31.334 265.907C32.2886 265.907 33.0625 265.135 33.0625 264.183C33.0625 263.231 32.2886 262.458 31.334 262.458C30.3794 262.458 29.6055 263.231 29.6055 264.183C29.6055 265.135 30.3794 265.907 31.334 265.907Z" fill="#6BA1D1"/>
<path d="M37.8408 265.907C38.7955 265.907 39.5694 265.135 39.5694 264.183C39.5694 263.231 38.7955 262.458 37.8408 262.458C36.8862 262.458 36.1123 263.231 36.1123 264.183C36.1123 265.135 36.8862 265.907 37.8408 265.907Z" fill="#6BA1D1"/>
<path d="M77.1902 261.14H68.751V269.518H77.1902V261.14Z" fill="#82B8E8"/>
<path d="M77.1902 261.14H68.751V263.808H77.1902V261.14Z" fill="#827D99"/>
<path d="M62.752 269.456H68.6493V254.497H62.752V269.456Z" fill="#82B8E8"/>
<path d="M5.50778 280.005C13.8454 276.658 20.4544 285.178 20.4544 285.178H1.2373C1.42065 284.014 1.9135 282.92 2.66456 282.01C3.41563 281.101 4.39744 280.408 5.50778 280.005Z" fill="#58A67E"/>
<path d="M14.9638 253.431C11.7101 267.53 12.1169 285.178 12.1169 285.178H15.9806C15.3706 272.398 16.6924 254.344 16.6924 254.344L14.9638 253.431Z" fill="#824B6F"/>
<path d="M14.4545 257.083L7.43871 264.386C6.21857 260.228 8.55717 256.779 13.336 255.055C11.4041 254.65 5.50684 252.316 5.50684 252.316C7.08312 251.439 8.87816 251.03 10.6799 251.138C12.4816 251.246 14.2148 251.866 15.6746 252.925C17.4032 250.795 20.9619 247.752 26.1475 248.969L19.2333 253.432C24.7239 252.925 25.9441 255.359 27.876 257.996L19.03 257.083L17.5048 266.719C17.5048 266.719 13.1327 261.04 14.4545 257.083Z" fill="#85C286"/>
<path d="M92.7468 290.046C90.3064 288.119 88.6796 285.178 84.4091 284.367C81.6295 282.519 78.2365 281.828 74.9531 282.44C83.9008 285.076 85.8327 289.64 85.8327 289.64C84.2139 289.462 82.5758 289.671 81.0538 290.249C87.6628 290.756 94.272 292.784 96.8138 296.436C98.4692 296.395 100.119 296.635 101.694 297.146C100.779 294.509 96.9156 290.756 92.7468 290.046Z" fill="#5CAD84"/>
<path d="M118.167 295.321C124.471 295.625 128.436 297.755 130.979 300.595C123.047 299.783 121.726 299.377 117.15 297.958C112.575 296.538 110.541 294.916 118.167 295.321Z" fill="#4A8C7B"/>
<path d="M51.0596 289.844H68.6499C53.0931 284.671 51.0596 289.844 51.0596 289.844Z" fill="#468069"/>
<path d="M64.2776 278.281C61.2273 278.687 58.0752 284.67 57.1602 289.843H73.3269C71.4968 283.454 70.4799 277.469 64.2776 278.281Z" fill="#6C6C96"/>
<path d="M114.404 295.524C115.523 292.481 117.862 291.366 119.286 293.089C122.132 293.293 124.675 293.495 124.675 297.552C124.675 297.552 117.963 297.857 114.404 295.524Z" fill="#58A67E"/>
<path d="M242.214 324.532C241.909 319.359 239.163 309.014 232.148 305.362C228.635 303.777 224.818 302.982 220.963 303.029C228.081 303.537 233.267 311.651 233.165 315.1C235.096 315.606 241.909 322.097 242.315 327.777C242.315 326.864 242.315 325.749 242.214 324.532Z" fill="#AEA3D1"/>
<path d="M202.355 321.793C204.288 322.097 210.999 323.923 210.999 328.487C211.166 330.938 211.644 333.358 212.421 335.689C218.522 335.385 223.708 334.978 228.081 334.573C228.081 331.428 225.945 328.183 223.098 325.343C220.251 322.503 219.031 319.866 217.709 315.403C216.388 310.94 212.015 304.652 203.88 305.362C206.219 307.898 205.304 312.969 202.355 321.793Z" fill="#7E74A6"/>
<path d="M219.845 304.855C222.691 305.261 223.911 306.783 224.115 307.39C224.318 307.999 220.963 306.579 220.963 306.579L219.845 304.855Z" fill="#B3A9D1"/>
<path d="M230.114 330.821C231.232 324.228 230.521 317.128 226.453 317.432C222.386 317.737 223.402 324.938 223.504 328.691C223.504 328.691 221.37 325.546 218.624 327.068C215.879 328.59 216.794 333.458 221.776 337.21H231.74C240.281 330.009 233.266 325.647 230.114 330.821Z" fill="#CFE08B"/>
<path d="M244.654 332.139C247.094 324.025 254.72 311.55 257.058 308.81C259.397 306.073 258.685 308.304 255.229 313.679C251.771 319.055 245.976 332.139 245.976 332.139H244.654Z" fill="#CFE08B"/>
<path d="M243.942 312.056C243.638 308.912 242.926 309.825 243.23 311.448C243.536 313.07 245.061 325.648 244.654 332.139H245.366C245.501 325.416 245.025 318.694 243.942 312.056Z" fill="#CFE08B"/>
<path d="M205.406 335.891C205.461 335.021 205.233 334.156 204.757 333.426C204.281 332.696 203.581 332.137 202.763 331.834C203.187 330.95 203.345 329.962 203.219 328.99C203.093 328.019 202.687 327.104 202.051 326.358C199.915 323.721 193.916 324.633 185.985 328.183C184.107 330.25 182.718 332.711 181.919 335.384H184.054C185.172 333.761 188.019 332.037 190.358 331.023C191.273 327.676 197.374 325.749 199.102 326.358C200.83 326.965 201.441 329.501 200.627 331.733C201.832 332.776 202.626 334.215 202.864 335.789L205.406 335.891Z" fill="#8C7CA6"/>
<path d="M227.979 333.558C228.691 327.574 227.878 321.184 226.759 321.793C225.641 322.401 225.539 325.444 225.539 332.138C224.827 329.806 221.878 329.197 221.98 331.428C221.065 330.008 218.015 329.298 217.811 332.544C218.725 334.403 220.087 336.006 221.777 337.209H230.012C234.182 332.544 230.115 332.34 227.979 333.558Z" fill="#BAD17B"/>
<path d="M49.3304 338.123C62.2435 332.849 63.6669 347.049 63.4635 351.411C68.9542 351.411 69.5642 357.293 68.039 363.581C76.5801 357.293 77.1901 367.638 77.1901 367.638C81.2572 361.349 81.5622 355.872 74.9532 354.554C77.3934 349.787 79.8337 337.312 67.3273 339.746C71.1911 324.532 63.4635 316.012 50.1437 315.403C50.8556 310.535 47.9069 307.999 43.3314 307.086C45.8733 309.825 45.3649 314.693 43.0264 316.721C52.1774 316.62 53.3975 329.705 49.3304 338.123Z" fill="#20373D"/>
<path d="M22.4873 326.56C27.8763 323.619 38.1457 325.445 37.6373 335.079C42.3145 333.964 47.9067 335.688 46.4833 341.976C43.3312 338.224 35.6037 337.716 28.588 340.556C29.3553 338.696 30.6217 337.082 32.2484 335.89C32.7568 330.414 29.4014 327.675 22.4873 326.56Z" fill="#253B47"/>
<path d="M72.9199 375.246C81.2575 372.71 87.6633 375.955 87.6633 380.824C97.4244 377.274 103.83 381.737 104.338 383.462C110.134 378.795 120.099 379.303 122.945 380.824C117.455 381.432 108.304 386.504 105.762 389.851C111.252 390.358 114.303 394.009 114.303 399.893C109.218 394.618 98.9495 390.257 92.7471 390.662C94.1864 389.106 95.9589 387.892 97.9327 387.113C92.0479 384.063 85.4327 382.693 78.8172 383.157C80.2408 379.1 78.5122 376.665 72.9199 375.246Z" fill="#20373D"/>
<path d="M-0.898438 346.339C12.7264 342.383 17.7086 346.643 17.7086 354.555C36.8241 353.642 46.6868 359.93 43.0264 374.332C54.9228 375.346 66.0057 385.794 67.3275 399.994H54.9228C52.1774 390.358 37.0275 378.896 22.4875 378.896C28.0798 369.972 30.3167 368.956 30.3167 368.956C21.2673 364.088 4.59217 363.479 -0.898438 367.638V346.339Z" fill="#192530"/>
<path d="M255.229 337.312C259.194 335.182 272.514 335.08 275.157 341.977L255.229 337.312Z" fill="#CFE08B"/>
<path d="M239.266 340.354C241.503 335.993 244.756 335.587 246.383 335.688C248.925 334.269 253.703 334.37 252.992 341.064C248.519 341.47 239.266 340.354 239.266 340.354Z" fill="#8C7CA6"/>
<path d="M242.111 337.008C243.027 336.602 243.942 336.804 244.145 337.21C244.348 337.616 242.823 339.036 242.721 340.76H244.857C244.853 339.754 245.213 338.782 245.873 338.022C246.992 337.109 249.025 337.819 250.043 338.528C249.969 337.741 249.833 336.962 249.635 336.196C249.228 335.081 247.195 335.182 246.382 335.587C244.83 335.511 243.306 336.017 242.111 337.008Z" fill="#7E74A6"/>
<path d="M234.413 360.414C234.44 359.911 233.008 359.425 231.213 359.327C229.419 359.231 227.943 359.56 227.915 360.063C227.887 360.568 229.32 361.053 231.114 361.151C232.909 361.248 234.386 360.919 234.413 360.414Z" fill="#85C28D"/>
<path d="M162.395 333.863C168.292 333.863 173.072 333.454 173.072 332.95C173.072 332.446 168.292 332.038 162.395 332.038C156.499 332.038 151.72 332.446 151.72 332.95C151.72 333.454 156.499 333.863 162.395 333.863Z" fill="#508F86"/>
<path d="M277.876 339.321C277.899 339.099 277.061 338.834 276.004 338.727C274.948 338.621 274.074 338.714 274.051 338.936C274.028 339.158 274.866 339.424 275.923 339.53C276.979 339.637 277.854 339.543 277.876 339.321Z" fill="#CFE08B"/>
<path d="M217.811 339.34C216.997 338.529 215.472 339.239 214.659 340.457L221.98 340.76C221.471 339.34 219.641 338.732 217.811 339.34Z" fill="#CFE08B"/>
<path d="M233.57 351.715C235.91 351.106 240.078 352.221 242.315 353.641L221.268 352.018C222.996 350.802 228.284 350.599 233.57 351.715Z" fill="#85C28D"/>
<path d="M155.685 340.76C155.621 336.965 156.065 333.179 157.008 329.502C157.665 333.303 157.206 337.213 155.685 340.76Z" fill="#CFE08B"/>
<path d="M155.686 340.76C155.703 336.848 155.154 332.954 154.059 329.198C153.652 328.082 153.245 327.677 153.754 330.517C154.263 333.356 155.178 340.76 155.178 340.76H155.686Z" fill="#CFE08B"/>
<path d="M189.138 368.957C194.933 364.393 201.034 363.683 202.356 370.377L189.138 368.957Z" fill="#7E74A6"/>
<path d="M142.975 330.414C142.975 322.098 126.605 320.069 120.403 323.112C114.506 319.46 103.83 319.46 103.321 332.544C116.234 331.834 126.199 332.138 130.978 332.95C140.027 332.037 142.975 330.414 142.975 330.414Z" fill="#629987"/>
<path d="M125.385 321.895C131.994 321.185 136.774 325.748 137.484 327.675C139.823 327.169 142.569 327.675 142.976 330.414C142.976 323.822 132.706 321.185 125.385 321.895Z" fill="#BAD17B"/>
<path d="M120.404 332.138C120.621 331.684 120.692 331.174 120.607 330.678C120.521 330.182 120.284 329.724 119.927 329.368C119.57 329.012 119.112 328.775 118.615 328.691C118.117 328.605 117.605 328.675 117.15 328.893C117.465 327.923 117.392 326.869 116.946 325.952C116.031 323.822 112.269 323.01 110.236 326.053C107.694 325.343 106.982 328.69 107.999 330.11C105.66 329.4 105.457 331.124 106.169 332.342C111.557 332.138 116.337 332.138 120.404 332.138Z" fill="#508F86"/>
<path d="M175.107 320.476L165.041 329.4L154.974 320.476V300.393L165.041 291.467L175.107 300.393V320.476Z" fill="#A73DB3"/>
<path d="M172.158 316.114L166.87 321.184L161.583 316.114V304.753L166.87 299.682L172.158 304.753V316.114Z" fill="#CC4CC8"/>
<path d="M166.87 299.682L165.04 291.467L175.106 300.393L172.157 304.753L166.87 299.682Z" fill="#F275FF"/>
<path d="M175.106 320.474L172.157 316.114L166.87 321.184L165.04 329.399L175.106 320.474Z" fill="#772C91"/>
<path d="M165.041 329.399L166.87 321.184L161.583 316.114L154.974 320.474L165.041 329.399Z" fill="#8C39A8"/>
<path d="M154.974 320.475L161.583 316.114V304.753L154.974 300.393V320.475Z" fill="#B341BF"/>
<path d="M164.735 316.823L166.769 315.201L163.007 313.983L164.735 316.823Z" fill="#D464CE"/>
<path d="M163.413 302.927C165.692 303.805 167.669 305.32 169.108 307.289L172.158 308.912V310.838C170.571 310.101 168.94 309.457 167.277 308.912C166.769 307.289 163.108 304.652 161.583 304.753L163.413 302.927Z" fill="#D45AE0"/>
<path d="M168.802 301.406L168.396 294.408L170.836 296.538L169.615 302.319L168.802 301.406Z" fill="white"/>
<path d="M101.491 339.644C106.27 338.731 111.456 339.441 113.184 340.76L97.2207 341.572C97.2207 341.572 97.3224 338.529 101.491 339.644Z" fill="#629987"/>
</g>
</g>
<defs>
<linearGradient id="paint0_linear_1_3010" x1="130.938" y1="227.102" x2="-4.43422" y2="155.979" gradientUnits="userSpaceOnUse">
<stop offset="0.03" stop-color="white"/>
<stop offset="1" stop-color="#CCBDFF"/>
</linearGradient>
<linearGradient id="paint1_linear_1_3010" x1="298.323" y1="265.352" x2="404.122" y2="399.953" gradientUnits="userSpaceOnUse">
<stop stop-color="white"/>
<stop offset="1" stop-color="#CCBDFF"/>
</linearGradient>
<linearGradient id="paint2_linear_1_3010" x1="53.3368" y1="220.924" x2="81.2986" y2="245.659" gradientUnits="userSpaceOnUse">
<stop stop-color="#6238EB"/>
<stop offset="1" stop-color="#80FBFF"/>
</linearGradient>
<clipPath id="clip0_1_3010">
<rect width="405.422" height="399.987" fill="white" transform="translate(-1 0.00634766)"/>
</clipPath>
</defs>
</svg>
