<svg width="352" height="352" viewBox="0 0 352 352" fill="none" xmlns="http://www.w3.org/2000/svg">
<g filter="url(#filter0_d_302_132)">
<rect x="10" y="10" width="324" height="324" rx="20" fill="white"/>
<rect x="10.5" y="10.5" width="323" height="323" rx="19.5" stroke="white"/>
</g>
<g opacity="0.75">
<path fill-rule="evenodd" clip-rule="evenodd" d="M127.117 38V126.255H38V127.255H127.117V215.872H38V216.872H127.117V305.128H128.117V216.872H216.734V305.128H217.734V216.872H305.128V215.872H217.734V127.255H305.128V126.255H217.734V38H216.734V126.255H128.117V38H127.117ZM216.734 215.872V127.255H128.117V215.872H216.734Z" fill="#C1C1C1"/>
<path d="M127.117 126.255V126.755H127.617V126.255H127.117ZM127.117 38V37.5H126.617V38H127.117ZM38 126.255V125.755H37.5V126.255H38ZM38 127.255H37.5V127.755H38V127.255ZM127.117 127.255H127.617V126.755H127.117V127.255ZM127.117 215.872V216.372H127.617V215.872H127.117ZM38 215.872V215.372H37.5V215.872H38ZM38 216.872H37.5V217.372H38V216.872ZM127.117 216.872H127.617V216.372H127.117V216.872ZM127.117 305.128H126.617V305.628H127.117V305.128ZM128.117 305.128V305.628H128.617V305.128H128.117ZM128.117 216.872V216.372H127.617V216.872H128.117ZM216.734 216.872H217.234V216.372H216.734V216.872ZM216.734 305.128H216.234V305.628H216.734V305.128ZM217.734 305.128V305.628H218.234V305.128H217.734ZM217.734 216.872V216.372H217.234V216.872H217.734ZM305.128 216.872V217.372H305.628V216.872H305.128ZM305.128 215.872H305.628V215.372H305.128V215.872ZM217.734 215.872H217.234V216.372H217.734V215.872ZM217.734 127.255V126.755H217.234V127.255H217.734ZM305.128 127.255V127.755H305.628V127.255H305.128ZM305.128 126.255H305.628V125.755H305.128V126.255ZM217.734 126.255H217.234V126.755H217.734V126.255ZM217.734 38H218.234V37.5H217.734V38ZM216.734 38V37.5H216.234V38H216.734ZM216.734 126.255V126.755H217.234V126.255H216.734ZM128.117 126.255H127.617V126.755H128.117V126.255ZM128.117 38H128.617V37.5H128.117V38ZM216.734 215.872V216.372H217.234V215.872H216.734ZM216.734 127.255H217.234V126.755H216.734V127.255ZM128.117 127.255V126.755H127.617V127.255H128.117ZM128.117 215.872H127.617V216.372H128.117V215.872ZM127.617 126.255V38H126.617V126.255H127.617ZM38 126.755H127.117V125.755H38V126.755ZM38.5 127.255V126.255H37.5V127.255H38.5ZM127.117 126.755H38V127.755H127.117V126.755ZM127.617 215.872V127.255H126.617V215.872H127.617ZM38 216.372H127.117V215.372H38V216.372ZM38.5 216.872V215.872H37.5V216.872H38.5ZM127.117 216.372H38V217.372H127.117V216.372ZM127.617 305.128V216.872H126.617V305.128H127.617ZM128.117 304.628H127.117V305.628H128.117V304.628ZM127.617 216.872V305.128H128.617V216.872H127.617ZM216.734 216.372H128.117V217.372H216.734V216.372ZM217.234 305.128V216.872H216.234V305.128H217.234ZM217.734 304.628H216.734V305.628H217.734V304.628ZM217.234 216.872V305.128H218.234V216.872H217.234ZM305.128 216.372H217.734V217.372H305.128V216.372ZM304.628 215.872V216.872H305.628V215.872H304.628ZM217.734 216.372H305.128V215.372H217.734V216.372ZM217.234 127.255V215.872H218.234V127.255H217.234ZM305.128 126.755H217.734V127.755H305.128V126.755ZM304.628 126.255V127.255H305.628V126.255H304.628ZM217.734 126.755H305.128V125.755H217.734V126.755ZM217.234 38V126.255H218.234V38H217.234ZM216.734 38.5H217.734V37.5H216.734V38.5ZM217.234 126.255V38H216.234V126.255H217.234ZM128.117 126.755H216.734V125.755H128.117V126.755ZM127.617 38V126.255H128.617V38H127.617ZM127.117 38.5H128.117V37.5H127.117V38.5ZM217.234 215.872V127.255H216.234V215.872H217.234ZM216.734 126.755H128.117V127.755H216.734V126.755ZM127.617 127.255V215.872H128.617V127.255H127.617ZM128.117 216.372H216.734V215.372H128.117V216.372Z" fill="#C1C1C1"/>
</g>
<path opacity="0.8" d="M50 50L77 76M104 102L77 76M77 76L50 102M77 76L104 50" stroke="#F54D62" stroke-width="19.1321" stroke-linecap="round" stroke-linejoin="bevel"/>
<path opacity="0.8" d="M145 146L172 172M199 198L172 172M172 172L145 198M172 172L199 146" stroke="#F54D62" stroke-width="19.1321" stroke-linecap="round" stroke-linejoin="bevel"/>
<circle opacity="0.8" cx="263" cy="263" r="30" stroke="#87E43A" stroke-width="19.1321" stroke-linecap="round" stroke-linejoin="bevel"/>
<circle opacity="0.8" cx="263" cy="83" r="30" stroke="#87E43A" stroke-width="19.1321" stroke-linecap="round" stroke-linejoin="bevel"/>
<defs>
<filter id="filter0_d_302_132" x="0" y="0" width="352" height="352" filterUnits="userSpaceOnUse" color-interpolation-filters="sRGB">
<feFlood flood-opacity="0" result="BackgroundImageFix"/>
<feColorMatrix in="SourceAlpha" type="matrix" values="0 0 0 0 0 0 0 0 0 0 0 0 0 0 0 0 0 0 127 0" result="hardAlpha"/>
<feOffset dx="4" dy="4"/>
<feGaussianBlur stdDeviation="7"/>
<feColorMatrix type="matrix" values="0 0 0 0 0 0 0 0 0 0 0 0 0 0 0 0 0 0 0.15 0"/>
<feBlend mode="normal" in2="BackgroundImageFix" result="effect1_dropShadow_302_132"/>
<feBlend mode="normal" in="SourceGraphic" in2="effect1_dropShadow_302_132" result="shape"/>
</filter>
</defs>
</svg>
