<svg width="48" height="48" viewBox="0 0 48 48" fill="none" xmlns="http://www.w3.org/2000/svg">
<circle cx="24" cy="24" r="24" fill="#0EA418"/>
<g clip-path="url(#clip0_44_7)">
<rect width="28" height="20" transform="translate(10 14)" fill="#0EA418"/>
<path d="M30.6644 34C30.6644 34 29.8014 32.9762 29.0822 32.0714C32.2226 31.1905 33.4212 29.2381 33.4212 29.2381C32.4384 29.881 31.5034 30.3334 30.6644 30.6429C29.4658 31.1429 28.3151 31.4762 27.1884 31.6667C24.887 32.0953 22.7774 31.9762 20.9795 31.6429C19.613 31.381 18.4384 31 17.4555 30.6191C16.9041 30.4048 16.3048 30.1429 15.7055 29.8096C15.6336 29.7619 15.5616 29.7381 15.4897 29.6905C15.4418 29.6667 15.4178 29.6429 15.3938 29.6191C14.9623 29.381 14.7226 29.2143 14.7226 29.2143C14.7226 29.2143 15.8733 31.1191 18.9178 32.0238C18.1986 32.9286 17.3116 34 17.3116 34C12.0137 33.8333 10 30.381 10 30.381C10 22.7144 13.452 16.5002 13.452 16.5002C16.9041 13.9288 20.1884 14.0002 20.1884 14.0002L20.4281 14.2859C16.113 15.524 14.1233 17.4049 14.1233 17.4049C14.1233 17.4049 14.6507 17.1192 15.5377 16.7145C18.1027 15.5954 20.1404 15.2859 20.9795 15.2145C21.1233 15.1907 21.2432 15.1668 21.387 15.1668C22.8493 14.9764 24.5034 14.9288 26.2295 15.1192C28.5068 15.3811 30.9521 16.0478 33.4452 17.4049C33.4452 17.4049 31.5514 15.6192 27.476 14.3811L27.8116 14.0002C27.8116 14.0002 31.0959 13.9288 34.5479 16.5002C34.5479 16.5002 38 22.7144 38 30.381C38 30.381 35.9623 33.8333 30.6644 34ZM19.5171 22.8811C18.1507 22.8811 17.0719 24.0715 17.0719 25.5239C17.0719 26.9763 18.1747 28.1667 19.5171 28.1667C20.8836 28.1667 21.9623 26.9763 21.9623 25.5239C21.9863 24.0715 20.8836 22.8811 19.5171 22.8811ZM28.2671 22.8811C26.9007 22.8811 25.8219 24.0715 25.8219 25.5239C25.8219 26.9763 26.9247 28.1667 28.2671 28.1667C29.6336 28.1667 30.7123 26.9763 30.7123 25.5239C30.7123 24.0715 29.6336 22.8811 28.2671 22.8811Z" fill="white"/>
</g>
<defs>
<clipPath id="clip0_44_7">
<rect width="28" height="20" fill="white" transform="translate(10 14)"/>
</clipPath>
</defs>
</svg>
